<svg width="60" height="60" viewBox="0 0 60 60" fill="none" xmlns="http://www.w3.org/2000/svg">
<rect width="60" height="60" rx="30" fill="#F4F5F9"/>
<path d="M30.3906 20.6562L41.0156 30.0312C41.2891 30.2656 41.2891 30.6562 41.0938 30.9297C40.8594 31.2031 40.4688 31.2031 40.1953 30.9688L38.75 29.6797V37.375C38.75 39.1328 37.3438 40.5 35.625 40.5H24.375C22.6172 40.5 21.25 39.1328 21.25 37.375V29.6797L19.7656 30.9688C19.5312 31.2031 19.1016 31.2031 18.9062 30.9297C18.6719 30.6562 18.6719 30.2656 18.9453 30.0312L29.5703 20.6562C29.8047 20.4609 30.1562 20.4609 30.3906 20.6562ZM22.5 37.375C22.5 38.4297 23.3203 39.25 24.375 39.25H35.625C36.6406 39.25 37.5 38.4297 37.5 37.375V28.5859L30 21.9844L22.5 28.5859V37.375ZM29.375 27.375H30.625C31.2891 27.375 31.875 27.9609 31.875 28.625V29.875H33.125C33.7891 29.875 34.375 30.4609 34.375 31.125V32.375C34.375 33.0781 33.7891 33.625 33.125 33.625H31.875V34.875C31.875 35.5781 31.2891 36.125 30.625 36.125H29.375C28.6719 36.125 28.125 35.5781 28.125 34.875V33.625H26.875C26.1719 33.625 25.625 33.0781 25.625 32.375V31.125C25.625 30.4609 26.1719 29.875 26.875 29.875H28.125V28.625C28.125 27.9609 28.6719 27.375 29.375 27.375ZM29.375 28.625V30.5C29.375 30.6953 29.2969 30.8516 29.1797 30.9688C29.0625 31.0859 28.9062 31.125 28.75 31.125H26.875V32.375H28.75C29.0625 32.375 29.375 32.6875 29.375 33V34.875H30.625V33C30.625 32.6875 30.8984 32.375 31.25 32.375H33.125V31.125H31.25C30.8984 31.125 30.625 30.8516 30.625 30.5V28.625H29.375Z" fill="#727B9A"/>
</svg>
