<svg width="60" height="60" viewBox="0 0 60 60" fill="none" xmlns="http://www.w3.org/2000/svg">
<rect width="60" height="60" rx="30" fill="#F4F5F9"/>
<path d="M30 39.25H29.9609C34.8047 39.25 38.7109 35.3438 38.7109 30.5C38.7109 29.875 38.6719 29.25 38.5156 28.6641L38.3594 29.6797C38.1641 30.8906 37.1094 31.75 35.8984 31.75H32.8125C31.6016 31.75 30.5469 30.8906 30.3516 29.6797L30.0391 27.8047C30 27.6484 30 27.5312 30 27.375H29.9609C29.9609 27.5312 29.9609 27.6484 29.9219 27.8047L29.6094 29.6797C29.4141 30.8906 28.3594 31.75 27.1484 31.75H24.0625C22.8516 31.75 21.7969 30.8906 21.6016 29.6797L21.4453 28.6641C21.2891 29.25 21.25 29.875 21.25 30.5C21.25 35.3438 25.1562 39.25 30 39.25ZM29.6094 26.125H30.3516C30.7812 25.3828 31.5625 24.875 32.5 24.875H36.2109C36.4062 24.875 36.5625 24.9141 36.7188 24.9531C35.1172 23 32.6953 21.75 30 21.75C27.2656 21.75 24.8438 23 23.2422 24.9531C23.3984 24.9141 23.5938 24.875 23.75 24.875H27.4609C28.3984 24.875 29.1797 25.3828 29.6094 26.125ZM30 40.5C26.4062 40.5 23.125 38.625 21.3281 35.5C19.5312 32.4141 19.5312 28.625 21.3281 25.5C23.125 22.4141 26.4062 20.5 30 20.5C33.5547 20.5 36.8359 22.4141 38.6328 25.5C40.4297 28.625 40.4297 32.4141 38.6328 35.5C36.8359 38.625 33.5547 40.5 30 40.5ZM25.5078 33.7812C25.7812 33.5859 26.1719 33.5859 26.4062 33.8594C27.1094 34.6797 28.2812 35.5 30 35.5C31.6797 35.5 32.8906 34.6797 33.5547 33.8594C33.7891 33.5859 34.1797 33.5859 34.4531 33.7812C34.7266 34.0156 34.7266 34.4062 34.5312 34.6797C33.6328 35.6953 32.1484 36.75 30 36.75C27.8125 36.75 26.3281 35.6953 25.4297 34.6797C25.2344 34.4062 25.2344 34.0156 25.5078 33.7812ZM31.2891 27.6094L31.6016 29.4844C31.6406 29.9141 31.9531 30.2656 32.3438 30.4219L34.1016 28.625H33.125C32.8516 28.625 32.6172 28.4688 32.5391 28.2734C32.4219 28.0391 32.5 27.7656 32.6562 27.5703L34.1016 26.125H32.5C31.7188 26.125 31.1328 26.8281 31.2891 27.6094ZM33.9844 30.5H35.8984C36.5234 30.5 37.0312 30.0703 37.1094 29.4844L37.4219 27.6094C37.5781 26.8281 36.9922 26.125 36.2109 26.125H35.8594L34.6094 27.375H35.625C35.8594 27.375 36.0938 27.5312 36.1719 27.7656C36.2891 28 36.2109 28.2734 36.0547 28.4688L33.9844 30.5ZM23.75 26.125C22.9688 26.125 22.3828 26.8281 22.5391 27.6094L22.8516 29.4844C22.8906 29.9141 23.2031 30.2656 23.5938 30.4219L25.3516 28.625H24.375C24.1016 28.625 23.8672 28.4688 23.7891 28.2734C23.6719 28.0391 23.75 27.7656 23.9062 27.5703L25.3516 26.125H23.75ZM27.3047 28.4688L25.2344 30.5H27.1484C27.7734 30.5 28.2812 30.0703 28.3594 29.4844L28.6719 27.6094C28.8281 26.8281 28.2422 26.125 27.4609 26.125H27.1094L25.8594 27.375H26.875C27.1094 27.375 27.3438 27.5312 27.4219 27.7656C27.5391 28 27.5 28.2734 27.3047 28.4688Z" fill="#727B9A"/>
</svg>
