<svg width="60" height="60" viewBox="0 0 60 60" fill="none" xmlns="http://www.w3.org/2000/svg">
<rect width="60" height="60" rx="30" fill="#F4F5F9"/>
<path d="M34.6094 30.6172C35.2344 29.6797 35.625 28.5859 35.625 27.375C35.625 24.2891 33.0859 21.75 30 21.75C26.875 21.75 24.375 24.2891 24.375 27.375C24.375 28.5859 24.7266 29.6797 25.3516 30.6172C25.5078 30.8125 25.7031 31.0859 25.8984 31.3594C26.4062 32.0234 26.9531 32.8047 27.3828 33.5859C27.7344 34.2109 27.9297 34.875 28.0078 35.5391H26.7578C26.6406 35.0703 26.5234 34.6016 26.2891 34.1719C25.8984 33.4688 25.4297 32.8047 24.9219 32.1406C24.7266 31.8672 24.5312 31.5938 24.3359 31.3203C23.5547 30.1875 23.125 28.8594 23.125 27.375C23.125 23.5859 26.1719 20.5 30 20.5C33.7891 20.5 36.875 23.5859 36.875 27.375C36.875 28.8594 36.4062 30.1875 35.625 31.3203C35.4297 31.5938 35.2344 31.8672 35.0391 32.1406C34.5312 32.8047 34.0625 33.4688 33.6719 34.1719C33.4375 34.6016 33.3203 35.0312 33.2031 35.5H31.9531C32.0703 34.875 32.2266 34.2109 32.5781 33.5859C33.0078 32.8047 33.5938 32.0234 34.0625 31.3203C34.2578 31.0859 34.4531 30.8125 34.6094 30.5781V30.6172ZM30 24.25C28.2422 24.25 26.875 25.6562 26.875 27.375C26.875 27.7266 26.5625 28 26.25 28C25.8984 28 25.625 27.7266 25.625 27.375C25.625 24.9922 27.5781 23 30 23C30.3125 23 30.625 23.3125 30.625 23.625C30.625 23.9766 30.3125 24.25 30 24.25ZM28.2031 38C28.4766 38.7422 29.1797 39.25 30 39.25C30.7812 39.25 31.4844 38.7422 31.7578 38H28.2031ZM26.875 37.375V37.1797C26.875 36.9453 27.0312 36.75 27.2656 36.75H32.6953C32.9297 36.75 33.125 36.9453 33.125 37.1797V37.375C33.125 39.1328 31.7188 40.5 30 40.5C28.2422 40.5 26.875 39.1328 26.875 37.375Z" fill="#727B9A"/>
</svg>
