<svg width="60" height="60" viewBox="0 0 60 60" fill="none" xmlns="http://www.w3.org/2000/svg">
<rect width="60" height="60" rx="30" fill="#F4F5F9"/>
<path d="M27.5 27.375C27.5 28 27.5781 28.5469 27.7344 29.0938C27.8125 29.3281 27.7734 29.5625 27.5781 29.7188L21.25 36.0859V39.25H25V37.375C25 37.0625 25.2734 36.75 25.625 36.75H27.5V34.875C27.5 34.5625 27.7734 34.25 28.125 34.25H30.0391L31.25 33.0391C31.4062 32.8828 31.6406 32.8438 31.8359 32.8828C32.2656 32.9609 32.6562 33 33.125 33C36.2109 33 38.75 30.5 38.75 27.375C38.75 24.2891 36.2109 21.75 33.125 21.75C30 21.75 27.5 24.2891 27.5 27.375ZM33.125 20.5C36.9141 20.5 40 23.5859 40 27.375C40 31.2031 36.9141 34.25 33.125 34.25C32.6953 34.25 32.3047 34.25 31.9141 34.1719L30.7422 35.3438C30.625 35.4609 30.4688 35.5 30.3125 35.5H28.75V37.375C28.75 37.7266 28.4375 38 28.125 38H26.25V39.875C26.25 40.2266 25.9375 40.5 25.625 40.5H20.625C20.2734 40.5 20 40.2266 20 39.875V35.8125C20 35.6562 20.0391 35.5 20.1562 35.3828L26.4453 29.0938C26.2891 28.5469 26.25 28 26.25 27.375C26.25 23.5859 29.2969 20.5 33.125 20.5ZM34.375 27.0625C33.8281 27.0625 33.4375 26.6719 33.4375 26.125C33.4375 25.6172 33.8281 25.1875 34.375 25.1875C34.8828 25.1875 35.3125 25.6172 35.3125 26.125C35.3125 26.6719 34.8828 27.0625 34.375 27.0625Z" fill="#727B9A"/>
</svg>
