<svg width="60" height="60" viewBox="0 0 60 60" fill="none" xmlns="http://www.w3.org/2000/svg">
<rect width="60" height="60" rx="30" fill="#F4F5F9"/>
<path d="M25 29.25V29.6797V29.8359C25 29.875 25.0391 29.9141 25.0781 29.9531C25.2344 30.1094 25.5469 30.3047 26.0156 30.5C26.9922 30.8906 28.3594 31.125 30 31.125C30.4297 31.125 30.8594 31.125 31.2891 31.0859C31.25 30.9297 31.25 30.7734 31.25 30.6172C31.25 30.1484 31.3672 29.6797 31.6406 29.25C31.6406 29.25 31.6016 29.2109 31.6016 29.1719C31.0938 29.25 30.5469 29.25 30 29.25C28.2422 29.25 26.6797 28.9766 25.5469 28.5469C25.3906 28.4688 25.2344 28.3906 25.0781 28.3125C25 28.625 25 28.9375 25 29.2891V29.25ZM31.25 27.9219C31.25 26.7109 32.1484 25.6953 33.3203 25.5391C32.4219 24.7578 31.25 24.25 30 24.25C28.0078 24.25 26.2891 25.4219 25.4688 27.1016C25.625 27.1797 25.8203 27.2969 26.0156 27.375C26.9922 27.7656 28.3594 28 30 28C30.4297 28 30.8203 28 31.25 27.9609V27.9219ZM30 23C32.1484 23 34.0625 24.1328 35.1953 25.8125C35.5469 25.6172 35.9375 25.5 36.3281 25.5C37.6562 25.5 38.75 26.5938 38.75 27.9219C38.75 28.3906 38.5938 28.8594 38.3203 29.25C38.5156 29.5625 38.6328 29.9141 38.7109 30.2656L41.3281 31.3203C42.0312 31.5938 42.5 32.2578 42.5 33C42.5 33.7031 42.1484 34.3672 41.4844 34.9531C40.8594 35.5781 39.9609 36.0859 38.8281 36.5547C36.5625 37.4531 33.4375 38 30 38C26.5234 38 23.3984 37.4531 21.1328 36.5547C20 36.0859 19.1016 35.5781 18.4766 34.9531C17.8125 34.3672 17.5 33.7031 17.5 33C17.5 32.2578 17.9297 31.5938 18.6328 31.3203L23.75 29.25C23.75 25.8125 26.5234 23 30 23ZM36.3281 33C35.8594 33 35.3906 32.8828 35 32.6094C34.5703 32.8828 34.1016 33 33.6328 33C32.9297 33 32.3438 32.7266 31.875 32.2578C31.2891 32.3359 30.6641 32.375 30 32.375C28.2422 32.375 26.6797 32.1016 25.5469 31.6719C25 31.4375 24.5312 31.1641 24.2188 30.8516C24.1016 30.7734 24.0234 30.6562 23.9453 30.5391L19.1016 32.4531C18.8672 32.5703 18.75 32.7656 18.75 33C18.75 33.2734 18.8281 33.5859 19.3359 34.0547C19.8047 34.5234 20.5469 34.9922 21.6016 35.3828C23.6719 36.2422 26.6406 36.75 30 36.75C33.3203 36.75 36.2891 36.2422 38.3594 35.3828C39.4141 34.9922 40.1562 34.5234 40.625 34.0547C41.1328 33.5859 41.25 33.2734 41.25 33C41.25 32.7656 41.0938 32.5703 40.8594 32.4531L38.5547 31.5547C38.2031 32.4141 37.3438 33 36.3281 33ZM33.6328 26.75C33.0078 26.75 32.5 27.2969 32.5 27.9219C32.5 28.2344 32.6172 28.5078 32.8125 28.7031L32.9297 28.8203C33.1641 29.0547 33.1641 29.4844 32.9297 29.7188L32.8125 29.7969C32.6172 30.0312 32.5 30.3047 32.5 30.6172C32.5 31.2422 33.0078 31.75 33.6328 31.75C33.9453 31.75 34.2188 31.6328 34.4531 31.4375L34.5312 31.3203C34.7656 31.0859 35.1953 31.0859 35.4297 31.3203L35.5469 31.4375C35.7422 31.6328 36.0156 31.75 36.3281 31.75C36.9531 31.75 37.5 31.2422 37.5 30.6172C37.5 30.3047 37.3438 30.0312 37.1484 29.7969L37.0312 29.7188C36.7969 29.4844 36.7969 29.0547 37.0312 28.8203L37.1484 28.7031C37.3438 28.5078 37.5 28.2344 37.5 27.9219C37.5 27.2969 36.9531 26.75 36.3281 26.75C36.0156 26.75 35.7422 26.9062 35.5469 27.1016L35.4297 27.2188C35.1953 27.4531 34.7656 27.4531 34.5312 27.2188L34.4531 27.1016C34.2188 26.9062 33.9453 26.75 33.6328 26.75ZM35 28.625C35.3125 28.625 35.625 28.9375 35.625 29.25C35.625 29.6016 35.3125 29.875 35 29.875C34.6484 29.875 34.375 29.6016 34.375 29.25C34.375 28.9375 34.6484 28.625 35 28.625Z" fill="#727B9A"/>
</svg>
