<svg width="60" height="60" viewBox="0 0 60 60" fill="none" xmlns="http://www.w3.org/2000/svg">
<rect width="60" height="60" rx="30" fill="#F4F5F9"/>
<path d="M21.25 24.25C20.5469 24.25 20 24.8359 20 25.5V35.5C20 36.2031 20.5469 36.75 21.25 36.75H38.75C39.4141 36.75 40 36.2031 40 35.5V25.5C40 24.8359 39.4141 24.25 38.75 24.25H21.25ZM18.75 25.5C18.75 24.1328 19.8438 23 21.25 23H38.75C40.1172 23 41.25 24.1328 41.25 25.5V35.5C41.25 36.9062 40.1172 38 38.75 38H21.25C19.8438 38 18.75 36.9062 18.75 35.5V25.5ZM29.375 31.75H36.875C37.1875 31.75 37.5 32.0625 37.5 32.375C37.5 32.7266 37.1875 33 36.875 33H29.375C29.0234 33 28.75 32.7266 28.75 32.375C28.75 32.0625 29.0234 31.75 29.375 31.75ZM28.75 28.625C28.75 28.3125 29.0234 28 29.375 28H36.875C37.1875 28 37.5 28.3125 37.5 28.625C37.5 28.9766 37.1875 29.25 36.875 29.25H29.375C29.0234 29.25 28.75 28.9766 28.75 28.625ZM25 26.4375V27.1406C25.3125 27.1797 25.625 27.2578 25.9375 27.3359C26.25 27.4141 26.4453 27.7656 26.3672 28.0781C26.2891 28.4297 25.9375 28.625 25.5859 28.5469C25.1562 28.4297 24.7266 28.3516 24.3359 28.3125C24.0234 28.3125 23.6719 28.3906 23.4375 28.5469C23.2031 28.6641 23.125 28.8203 23.125 29.0547C23.125 29.1719 23.1641 29.2891 23.3984 29.4453C23.6719 29.6016 24.0234 29.7188 24.5312 29.875H24.5703C25 29.9922 25.5469 30.1484 25.9766 30.4219C26.4453 30.7344 26.8359 31.2031 26.875 31.9453C26.875 32.6875 26.4844 33.2344 25.9766 33.5469C25.6641 33.7422 25.3125 33.8594 25 33.8984V34.5625C25 34.9141 24.6875 35.1875 24.375 35.1875C24.0234 35.1875 23.75 34.9141 23.75 34.5625V33.8984C23.2812 33.8203 22.8906 33.6641 22.5391 33.5469C22.4609 33.5078 22.3438 33.4688 22.2656 33.4688C21.9531 33.3516 21.7969 33 21.875 32.6484C21.9922 32.3359 22.3438 32.1797 22.6953 32.2578C22.7734 32.2969 22.8516 32.3359 22.9688 32.375C23.4766 32.5312 23.9062 32.6875 24.375 32.6875C24.7266 32.7266 25.0781 32.6484 25.3125 32.4922C25.5078 32.375 25.625 32.2188 25.5859 31.9453C25.5859 31.7891 25.5469 31.6328 25.3125 31.5156C25.0391 31.3203 24.6484 31.2031 24.1797 31.0469H24.1016C23.6719 30.9297 23.1641 30.7734 22.7344 30.5C22.2656 30.2266 21.875 29.7578 21.875 29.0547C21.875 28.2734 22.2656 27.7656 22.7734 27.4531C23.0859 27.2969 23.3984 27.1797 23.75 27.1406V26.4375C23.75 26.125 24.0234 25.8125 24.375 25.8125C24.6875 25.8125 25 26.125 25 26.4375Z" fill="#727B9A"/>
</svg>
