<svg width="60" height="60" viewBox="0 0 60 60" fill="none" xmlns="http://www.w3.org/2000/svg">
<rect width="60" height="60" rx="30" fill="#F4F5F9"/>
<path d="M30 21.75C27.5391 21.75 25.2734 23.0781 24.0234 25.1875C22.8125 27.3359 22.8125 29.9531 24.0234 32.0625C25.2734 34.2109 27.5391 35.5 30 35.5C32.4219 35.5 34.6875 34.2109 35.9375 32.0625C37.1484 29.9531 37.1484 27.3359 35.9375 25.1875C34.6875 23.0781 32.4219 21.75 30 21.75ZM30 36.75C27.0703 36.75 24.4141 35.2266 22.9297 32.6875C21.4844 30.1875 21.4844 27.1016 22.9297 24.5625C24.4141 22.0625 27.0703 20.5 30 20.5C32.8906 20.5 35.5469 22.0625 37.0312 24.5625C38.4766 27.1016 38.4766 30.1875 37.0312 32.6875C35.5469 35.2266 32.8906 36.75 30 36.75ZM22.5 34.25C22.8125 34.7188 23.2031 35.1484 23.5938 35.5H22.1875C21.6406 35.5 21.25 35.9297 21.25 36.4375V38.3125C21.25 38.8594 21.6406 39.25 22.1875 39.25H37.8125C38.3203 39.25 38.75 38.8594 38.75 38.3125V36.4375C38.75 35.9297 38.3203 35.5 37.8125 35.5H36.3672C36.7578 35.1484 37.1484 34.7188 37.5 34.25H37.8125C38.9844 34.25 40 35.2656 40 36.4375V38.3125C40 39.5234 38.9844 40.5 37.8125 40.5H22.1875C20.9766 40.5 20 39.5234 20 38.3125V36.4375C20 35.2656 20.9766 34.25 22.1875 34.25H22.5ZM30.625 24.5625V25.2656C30.9375 25.3047 31.25 25.3828 31.5625 25.4609C31.875 25.5391 32.0703 25.8906 31.9922 26.2031C31.9141 26.5547 31.5625 26.75 31.2109 26.6719C30.7812 26.5547 30.3516 26.4766 29.9609 26.4375C29.6484 26.4375 29.2969 26.5156 29.0625 26.6719C28.8281 26.7891 28.75 26.9453 28.75 27.1797C28.75 27.2969 28.7891 27.4141 29.0234 27.5703C29.2969 27.7266 29.6484 27.8438 30.1562 28H30.1953C30.625 28.1172 31.1719 28.3125 31.6016 28.5469C32.0703 28.8594 32.4609 29.3281 32.5 30.0703C32.5 30.8125 32.1094 31.3594 31.6016 31.6719C31.2891 31.8672 30.9375 31.9844 30.625 32.0234V32.6875C30.625 33.0391 30.3125 33.3125 30 33.3125C29.6484 33.3125 29.375 33.0391 29.375 32.6875V32.0234C28.9062 31.9453 28.5156 31.7891 28.1641 31.6719C28.0859 31.6328 27.9688 31.5938 27.8906 31.5938C27.5781 31.4766 27.4219 31.125 27.5 30.8125C27.6172 30.4609 27.9688 30.3047 28.3203 30.3828C28.3984 30.4219 28.4766 30.4609 28.5938 30.5C29.1016 30.6562 29.5312 30.8125 30 30.8516C30.3516 30.8516 30.7031 30.7734 30.9375 30.6172C31.1328 30.5 31.25 30.3438 31.2109 30.0703C31.2109 29.9141 31.1719 29.7578 30.9375 29.6406C30.6641 29.4453 30.2734 29.3281 29.8047 29.1719H29.7266C29.2969 29.0547 28.7891 28.8984 28.3594 28.625C27.8906 28.3516 27.5 27.8828 27.5 27.1797C27.5 26.4375 27.8906 25.8906 28.3984 25.5781C28.7109 25.4219 29.0234 25.3047 29.375 25.2656V24.5625C29.375 24.25 29.6484 23.9375 30 23.9375C30.3125 23.9375 30.625 24.25 30.625 24.5625Z" fill="#727B9A"/>
</svg>
