<svg width="60" height="60" viewBox="0 0 60 60" fill="none" xmlns="http://www.w3.org/2000/svg">
<rect width="60" height="60" rx="30" fill="#F4F5F9"/>
<path d="M24.4141 24.3672L23.3203 28.0391C23.4375 28.0391 23.5938 28 23.75 28H36.25C36.3672 28 36.5234 28.0391 36.6406 28.0391L35.5469 24.3672C35.3125 23.5469 34.5703 23 33.75 23H26.2109C25.3906 23 24.6484 23.5469 24.4141 24.3672ZM22.8906 29.4062C21.9141 29.7578 21.25 30.6953 21.25 31.75V35.5H38.75V31.75C38.75 30.6953 38.0469 29.7578 37.0703 29.4062C36.7969 29.3281 36.5234 29.25 36.2109 29.25H23.75C23.4375 29.25 23.1641 29.3281 22.8906 29.4062ZM21.875 28.5078V28.4688L23.2422 23.9766C23.6328 22.6875 24.8438 21.75 26.2109 21.75H33.75C35.1172 21.75 36.3281 22.6875 36.7578 23.9766L38.0859 28.4688V28.5078C39.2188 29.1719 40 30.3828 40 31.75V35.5V36.125V36.75V38.625C40 38.9766 39.6875 39.25 39.375 39.25C39.0234 39.25 38.75 38.9766 38.75 38.625V36.75H21.25V38.625C21.25 38.9766 20.9375 39.25 20.625 39.25C20.2734 39.25 20 38.9766 20 38.625V36.75V36.125V35.5V31.75C20 30.3828 20.7422 29.1719 21.875 28.5078ZM24.0625 31.125C24.5703 31.125 25 31.5547 25 32.0625C25 32.6094 24.5703 33 24.0625 33C23.5156 33 23.125 32.6094 23.125 32.0625C23.125 31.5547 23.5156 31.125 24.0625 31.125ZM35 32.0625C35 31.5547 35.3906 31.125 35.9375 31.125C36.4453 31.125 36.875 31.5547 36.875 32.0625C36.875 32.6094 36.4453 33 35.9375 33C35.3906 33 35 32.6094 35 32.0625Z" fill="#727B9A"/>
</svg>
