<svg width="60" height="60" viewBox="0 0 60 60" fill="none" xmlns="http://www.w3.org/2000/svg">
<rect width="60" height="60" rx="30" fill="#F4F5F9"/>
<path d="M34.2578 21.75C33.5547 21.75 32.9297 22.1016 32.5391 22.6875L30.7812 25.5H31.25H34.375C35.3906 25.5 36.25 24.6797 36.25 23.625C36.25 22.6094 35.3906 21.75 34.375 21.75H34.2578ZM29.1797 25.5L27.4219 22.6875C27.0312 22.1016 26.4062 21.75 25.7031 21.75H25.625C24.5703 21.75 23.75 22.6094 23.75 23.625C23.75 24.6797 24.5703 25.5 25.625 25.5H28.75H29.1797ZM30 24.4453L31.4844 22.0234C32.1094 21.0859 33.125 20.5 34.2578 20.5H34.375C36.0938 20.5 37.5 21.9062 37.5 23.625C37.5 24.3281 37.2656 24.9922 36.875 25.5H38.125C39.1406 25.5 40 26.3594 40 27.375V29.875C40 30.6953 39.4531 31.3984 38.75 31.6719V31.75V38C38.75 39.4062 37.6172 40.5 36.25 40.5H23.75C22.3438 40.5 21.25 39.4062 21.25 38V31.75V31.6719C20.5078 31.3984 20 30.6953 20 29.875V27.375C20 26.3594 20.8203 25.5 21.875 25.5H23.125C22.7344 24.9922 22.5 24.3281 22.5 23.625C22.5 21.9062 23.8672 20.5 25.625 20.5H25.7031C26.8359 20.5 27.8906 21.0859 28.4766 22.0234L30 24.4453ZM25.625 26.75H21.875C21.5234 26.75 21.25 27.0625 21.25 27.375V29.875C21.25 30.2266 21.5234 30.5 21.875 30.5H22.5H29.375V26.75H28.75H25.625ZM30.625 26.75V30.5H37.5H38.125C38.4375 30.5 38.75 30.2266 38.75 29.875V27.375C38.75 27.0625 38.4375 26.75 38.125 26.75H34.375H31.25H30.625ZM29.375 31.75H22.5V38C22.5 38.7031 23.0469 39.25 23.75 39.25H29.375V31.75ZM30.625 39.25H36.25C36.9141 39.25 37.5 38.7031 37.5 38V31.75H30.625V39.25Z" fill="#727B9A"/>
</svg>
