<svg width="60" height="60" viewBox="0 0 60 60" fill="none" xmlns="http://www.w3.org/2000/svg">
<rect width="60" height="60" rx="30" fill="#0E44FE" fill-opacity="0.05"/>
<rect x="0.5" y="0.5" width="59" height="59" rx="29.5" stroke="#0E44FE" stroke-opacity="0.4" stroke-linecap="square" stroke-linejoin="round" stroke-dasharray="1 4"/>
<path d="M30.625 23V29.875H37.5C37.8125 29.875 38.125 30.1875 38.125 30.5C38.125 30.8516 37.8125 31.125 37.5 31.125H30.625V38C30.625 38.3516 30.3125 38.625 30 38.625C29.6484 38.625 29.375 38.3516 29.375 38V31.125H22.5C22.1484 31.125 21.875 30.8516 21.875 30.5C21.875 30.1875 22.1484 29.875 22.5 29.875H29.375V23C29.375 22.6875 29.6484 22.375 30 22.375C30.3125 22.375 30.625 22.6875 30.625 23Z" fill="#0D43FF"/>
</svg>
