<svg width="16" height="21" viewBox="0 0 16 21" fill="none" xmlns="http://www.w3.org/2000/svg">
<path d="M1.51562 0.65625L3.58594 2.49219L5.34375 0.695312C5.57812 0.460938 6.00781 0.460938 6.24219 0.695312L8 2.45312L9.71875 0.695312C9.95312 0.460938 10.3828 0.460938 10.6172 0.695312L12.375 2.49219L14.4453 0.65625C14.6406 0.5 14.875 0.460938 15.1094 0.578125C15.3438 0.65625 15.5 0.890625 15.5 1.125V19.875C15.5 20.1484 15.3438 20.3438 15.1094 20.4609C14.875 20.5781 14.6406 20.5391 14.4453 20.3438L12.375 18.5469L10.6172 20.3438C10.3828 20.5781 9.95312 20.5781 9.71875 20.3438L8 18.5859L6.24219 20.3438C6.00781 20.5781 5.57812 20.5781 5.34375 20.3438L3.58594 18.5469L1.51562 20.3828C1.32031 20.5391 1.08594 20.5781 0.851562 20.4609C0.617188 20.3438 0.5 20.1484 0.5 19.875V1.125C0.5 0.890625 0.617188 0.65625 0.851562 0.578125C1.08594 0.460938 1.32031 0.5 1.51562 0.65625ZM1.75 18.5078L3.19531 17.2188C3.42969 17.0234 3.82031 17.0234 4.05469 17.2578L5.8125 19.0156L7.53125 17.2578C7.76562 17.0234 8.19531 17.0234 8.42969 17.2578L10.1875 19.0156L11.9062 17.2578C12.1406 17.0234 12.5312 17.0234 12.7656 17.2188L14.25 18.5078V2.53125L12.7656 3.78125C12.5312 4.01562 12.1406 4.01562 11.9062 3.78125L10.1875 2.02344L8.42969 3.78125C8.19531 4.01562 7.76562 4.01562 7.53125 3.78125L5.8125 2.02344L4.05469 3.78125C3.82031 4.01562 3.42969 4.01562 3.19531 3.78125L1.75 2.53125V18.5078ZM4.25 6.125H11.75C12.0625 6.125 12.375 6.4375 12.375 6.75C12.375 7.10156 12.0625 7.375 11.75 7.375H4.25C3.89844 7.375 3.625 7.10156 3.625 6.75C3.625 6.4375 3.89844 6.125 4.25 6.125ZM3.625 14.25C3.625 13.9375 3.89844 13.625 4.25 13.625H11.75C12.0625 13.625 12.375 13.9375 12.375 14.25C12.375 14.6016 12.0625 14.875 11.75 14.875H4.25C3.89844 14.875 3.625 14.6016 3.625 14.25ZM4.25 9.875H11.75C12.0625 9.875 12.375 10.1875 12.375 10.5C12.375 10.8516 12.0625 11.125 11.75 11.125H4.25C3.89844 11.125 3.625 10.8516 3.625 10.5C3.625 10.1875 3.89844 9.875 4.25 9.875Z" fill="#727B9A"/>
</svg>
