<svg width="61" height="60" viewBox="0 0 61 60" fill="none" xmlns="http://www.w3.org/2000/svg">
<rect x="0.5" width="60" height="60" rx="30" fill="#F4F5F9"/>
<path d="M28 27.375C28 28 28.0781 28.5469 28.2344 29.0938C28.3125 29.3281 28.2734 29.5625 28.0781 29.7188L21.75 36.0859V39.25H25.5V37.375C25.5 37.0625 25.7734 36.75 26.125 36.75H28V34.875C28 34.5625 28.2734 34.25 28.625 34.25H30.5391L31.75 33.0391C31.9062 32.8828 32.1406 32.8438 32.3359 32.8828C32.7656 32.9609 33.1562 33 33.625 33C36.7109 33 39.25 30.5 39.25 27.375C39.25 24.2891 36.7109 21.75 33.625 21.75C30.5 21.75 28 24.2891 28 27.375ZM33.625 20.5C37.4141 20.5 40.5 23.5859 40.5 27.375C40.5 31.2031 37.4141 34.25 33.625 34.25C33.1953 34.25 32.8047 34.25 32.4141 34.1719L31.2422 35.3438C31.125 35.4609 30.9688 35.5 30.8125 35.5H29.25V37.375C29.25 37.7266 28.9375 38 28.625 38H26.75V39.875C26.75 40.2266 26.4375 40.5 26.125 40.5H21.125C20.7734 40.5 20.5 40.2266 20.5 39.875V35.8125C20.5 35.6562 20.5391 35.5 20.6562 35.3828L26.9453 29.0938C26.7891 28.5469 26.75 28 26.75 27.375C26.75 23.5859 29.7969 20.5 33.625 20.5ZM34.875 27.0625C34.3281 27.0625 33.9375 26.6719 33.9375 26.125C33.9375 25.6172 34.3281 25.1875 34.875 25.1875C35.3828 25.1875 35.8125 25.6172 35.8125 26.125C35.8125 26.6719 35.3828 27.0625 34.875 27.0625Z" fill="#727B9A"/>
</svg>
