<svg width="61" height="60" viewBox="0 0 61 60" fill="none" xmlns="http://www.w3.org/2000/svg">
<rect x="0.5" width="60" height="60" rx="30" fill="#F4F5F9"/>
<path d="M32.0234 20.6172C32.3359 20.4219 32.7266 20.5391 32.8828 20.8125L37.1016 28H39.2109H40.5H41.125C41.4375 28 41.75 28.3125 41.75 28.625C41.75 28.9766 41.4375 29.25 41.125 29.25H40.1875L37.8438 38.625C37.5703 39.7188 36.5547 40.5 35.4219 40.5H25.5781C24.4062 40.5 23.4297 39.7188 23.1172 38.625L20.8125 29.25H19.875C19.5234 29.25 19.25 28.9766 19.25 28.625C19.25 28.3125 19.5234 28 19.875 28H20.5H21.7891H23.8594L28.0781 20.8125C28.2344 20.5391 28.625 20.4219 28.9375 20.6172C29.2109 20.7734 29.3281 21.1641 29.1328 21.4766L25.3047 28H35.6562L31.8281 21.4766C31.6328 21.1641 31.75 20.7734 32.0234 20.6172ZM22.1016 29.25L24.3672 38.3125C24.4844 38.8594 24.9922 39.25 25.5781 39.25H35.4219C35.9688 39.25 36.4766 38.8594 36.6328 38.3125L38.8984 29.25H22.1016ZM28 32.375V36.125C28 36.4766 27.6875 36.75 27.375 36.75C27.0234 36.75 26.75 36.4766 26.75 36.125V32.375C26.75 32.0625 27.0234 31.75 27.375 31.75C27.6875 31.75 28 32.0625 28 32.375ZM30.5 31.75C30.8125 31.75 31.125 32.0625 31.125 32.375V36.125C31.125 36.4766 30.8125 36.75 30.5 36.75C30.1484 36.75 29.875 36.4766 29.875 36.125V32.375C29.875 32.0625 30.1484 31.75 30.5 31.75ZM34.25 32.375V36.125C34.25 36.4766 33.9375 36.75 33.625 36.75C33.2734 36.75 33 36.4766 33 36.125V32.375C33 32.0625 33.2734 31.75 33.625 31.75C33.9375 31.75 34.25 32.0625 34.25 32.375Z" fill="#727B9A"/>
</svg>
