<svg width="61" height="60" viewBox="0 0 61 60" fill="none" xmlns="http://www.w3.org/2000/svg">
<rect x="0.5" width="60" height="60" rx="30" fill="#F4F5F9"/>
<path d="M24.6797 23C23.8984 23 23.2344 23.4688 22.9219 24.2109L21.3984 28H26.75V27.375V23.625V23H24.6797ZM28 28H36.6719L33.2344 23.7031C32.8828 23.2734 32.3359 23 31.7891 23H28V23.625V27.375V28ZM38.2734 28.0391C40.8906 28.1953 43 30.3438 43 33V34.875C43 35.5781 42.4141 36.125 41.75 36.125H40.4219C40.1484 37.9219 38.5859 39.25 36.75 39.25C34.875 39.25 33.3125 37.9219 33.0391 36.125H27.9219C27.6484 37.9219 26.0859 39.25 24.25 39.25C22.375 39.25 20.8125 37.9219 20.5391 36.125H19.25C18.5469 36.125 18 35.5781 18 34.875V30.5C18 29.2891 18.8594 28.2734 20.0312 28.0391L21.7891 23.7422C22.2578 22.5312 23.3906 21.75 24.6797 21.75H31.7891C32.7266 21.75 33.625 22.1797 34.2109 22.9219L38.2734 28.0391ZM39.1719 36.125C39.2109 35.9297 39.25 35.7344 39.25 35.5C39.25 35.3047 39.2109 35.1094 39.1719 34.875C38.8594 33.8203 37.8828 33 36.75 33C35.5781 33 34.6016 33.8203 34.3281 34.875C34.25 35.1094 34.25 35.3047 34.25 35.5C34.25 35.7344 34.25 35.9297 34.3281 36.125C34.6016 37.2188 35.5781 38 36.75 38C37.8828 38 38.8594 37.2188 39.1719 36.125ZM33.0391 34.875C33.3125 33.1172 34.875 31.75 36.75 31.75C38.5859 31.75 40.1484 33.1172 40.4219 34.875H41.75V33C41.75 30.9297 40.0703 29.25 38 29.25H20.5C19.7969 29.25 19.25 29.8359 19.25 30.5V34.875H20.5391C20.8125 33.1172 22.375 31.75 24.25 31.75C26.0859 31.75 27.6484 33.1172 27.9219 34.875H33.0391ZM24.25 38C25.3828 38 26.3594 37.2188 26.6719 36.125C26.7109 35.9297 26.75 35.7344 26.75 35.5C26.75 35.3047 26.7109 35.1094 26.6719 34.875C26.3594 33.8203 25.3828 33 24.25 33C23.0781 33 22.1016 33.8203 21.8281 34.875C21.75 35.1094 21.75 35.3047 21.75 35.5C21.75 35.7344 21.75 35.9297 21.8281 36.125C22.1016 37.2188 23.0781 38 24.25 38Z" fill="#727B9A"/>
</svg>
