<svg width="60" height="60" viewBox="0 0 60 60" fill="none" xmlns="http://www.w3.org/2000/svg">
<rect width="60" height="60" rx="30" fill="#F4F5F9"/>
<path d="M23.125 23C22.7734 23 22.5 23.3125 22.5 23.625V27.375C22.5 27.7266 22.7734 28 23.125 28H26.875C27.1875 28 27.5 27.7266 27.5 27.375V23.625C27.5 23.3125 27.1875 23 26.875 23H23.125ZM21.25 23.625C21.25 22.6094 22.0703 21.75 23.125 21.75H26.875C27.8906 21.75 28.75 22.6094 28.75 23.625V27.375C28.75 28.4297 27.8906 29.25 26.875 29.25H23.125C22.0703 29.25 21.25 28.4297 21.25 27.375V23.625ZM23.125 33C22.7734 33 22.5 33.3125 22.5 33.625V37.375C22.5 37.7266 22.7734 38 23.125 38H26.875C27.1875 38 27.5 37.7266 27.5 37.375V33.625C27.5 33.3125 27.1875 33 26.875 33H23.125ZM21.25 33.625C21.25 32.6094 22.0703 31.75 23.125 31.75H26.875C27.8906 31.75 28.75 32.6094 28.75 33.625V37.375C28.75 38.4297 27.8906 39.25 26.875 39.25H23.125C22.0703 39.25 21.25 38.4297 21.25 37.375V33.625ZM36.875 23H33.125C32.7734 23 32.5 23.3125 32.5 23.625V27.375C32.5 27.7266 32.7734 28 33.125 28H36.875C37.1875 28 37.5 27.7266 37.5 27.375V23.625C37.5 23.3125 37.1875 23 36.875 23ZM33.125 21.75H36.875C37.8906 21.75 38.75 22.6094 38.75 23.625V27.375C38.75 28.4297 37.8906 29.25 36.875 29.25H33.125C32.0703 29.25 31.25 28.4297 31.25 27.375V23.625C31.25 22.6094 32.0703 21.75 33.125 21.75ZM33.125 33C32.7734 33 32.5 33.3125 32.5 33.625V37.375C32.5 37.7266 32.7734 38 33.125 38H36.875C37.1875 38 37.5 37.7266 37.5 37.375V33.625C37.5 33.3125 37.1875 33 36.875 33H33.125ZM31.25 33.625C31.25 32.6094 32.0703 31.75 33.125 31.75H36.875C37.8906 31.75 38.75 32.6094 38.75 33.625V37.375C38.75 38.4297 37.8906 39.25 36.875 39.25H33.125C32.0703 39.25 31.25 38.4297 31.25 37.375V33.625Z" fill="#727B9A"/>
</svg>
