<svg width="61" height="60" viewBox="0 0 61 60" fill="none" xmlns="http://www.w3.org/2000/svg">
<rect x="0.5" width="60" height="60" rx="30" fill="#F4F5F9"/>
<path d="M35.1094 30.6172C35.7344 29.6797 36.125 28.5859 36.125 27.375C36.125 24.2891 33.5859 21.75 30.5 21.75C27.375 21.75 24.875 24.2891 24.875 27.375C24.875 28.5859 25.2266 29.6797 25.8516 30.6172C26.0078 30.8125 26.2031 31.0859 26.3984 31.3594C26.9062 32.0234 27.4531 32.8047 27.8828 33.5859C28.2344 34.2109 28.4297 34.875 28.5078 35.5391H27.2578C27.1406 35.0703 27.0234 34.6016 26.7891 34.1719C26.3984 33.4688 25.9297 32.8047 25.4219 32.1406C25.2266 31.8672 25.0312 31.5938 24.8359 31.3203C24.0547 30.1875 23.625 28.8594 23.625 27.375C23.625 23.5859 26.6719 20.5 30.5 20.5C34.2891 20.5 37.375 23.5859 37.375 27.375C37.375 28.8594 36.9062 30.1875 36.125 31.3203C35.9297 31.5938 35.7344 31.8672 35.5391 32.1406C35.0312 32.8047 34.5625 33.4688 34.1719 34.1719C33.9375 34.6016 33.8203 35.0312 33.7031 35.5H32.4531C32.5703 34.875 32.7266 34.2109 33.0781 33.5859C33.5078 32.8047 34.0938 32.0234 34.5625 31.3203C34.7578 31.0859 34.9531 30.8125 35.1094 30.5781V30.6172ZM30.5 24.25C28.7422 24.25 27.375 25.6562 27.375 27.375C27.375 27.7266 27.0625 28 26.75 28C26.3984 28 26.125 27.7266 26.125 27.375C26.125 24.9922 28.0781 23 30.5 23C30.8125 23 31.125 23.3125 31.125 23.625C31.125 23.9766 30.8125 24.25 30.5 24.25ZM28.7031 38C28.9766 38.7422 29.6797 39.25 30.5 39.25C31.2812 39.25 31.9844 38.7422 32.2578 38H28.7031ZM27.375 37.375V37.1797C27.375 36.9453 27.5312 36.75 27.7656 36.75H33.1953C33.4297 36.75 33.625 36.9453 33.625 37.1797V37.375C33.625 39.1328 32.2188 40.5 30.5 40.5C28.7422 40.5 27.375 39.1328 27.375 37.375Z" fill="#727B9A"/>
</svg>
