<svg width="60" height="60" viewBox="0 0 60 60" fill="none" xmlns="http://www.w3.org/2000/svg">
<rect width="60" height="60" rx="30" fill="#F4F5F9"/>
<path d="M19.375 20.5H20.8203C21.6406 20.5 22.3438 21.0078 22.6172 21.75H39.8047C40.625 21.75 41.2109 22.5312 41.0156 23.3125L39.375 29.875C39.1016 30.9688 38.0859 31.75 36.9531 31.75H24.6875L24.9609 33.2734C25.0781 33.8594 25.625 34.25 26.2109 34.25H38.125C38.4375 34.25 38.75 34.5625 38.75 34.875C38.75 35.2266 38.4375 35.5 38.125 35.5H26.2109C25 35.5 23.9844 34.6797 23.75 33.5078L21.4453 22.2578C21.4062 21.9844 21.1328 21.75 20.8203 21.75H19.375C19.0234 21.75 18.75 21.4766 18.75 21.125C18.75 20.8125 19.0234 20.5 19.375 20.5ZM22.8906 23L24.4141 30.5H36.9531C37.5391 30.5 38.0469 30.1094 38.1641 29.5625L39.8047 23H22.8906ZM25.3125 38.3125C25.3125 38.8594 25.7031 39.25 26.25 39.25C26.7578 39.25 27.1875 38.8594 27.1875 38.3125C27.1875 37.8047 26.7578 37.375 26.25 37.375C25.7031 37.375 25.3125 37.8047 25.3125 38.3125ZM28.4375 38.3125C28.4375 39.1328 28.0078 39.8359 27.3438 40.2266C26.6406 40.6172 25.8203 40.6172 25.1562 40.2266C24.4531 39.8359 24.0625 39.1328 24.0625 38.3125C24.0625 37.5312 24.4531 36.8281 25.1562 36.4375C25.8203 36.0469 26.6406 36.0469 27.3438 36.4375C28.0078 36.8281 28.4375 37.5312 28.4375 38.3125ZM36.25 37.375C35.7031 37.375 35.3125 37.8047 35.3125 38.3125C35.3125 38.8594 35.7031 39.25 36.25 39.25C36.7578 39.25 37.1875 38.8594 37.1875 38.3125C37.1875 37.8047 36.7578 37.375 36.25 37.375ZM36.25 40.5C35.4297 40.5 34.7266 40.1094 34.3359 39.4062C33.9453 38.7422 33.9453 37.9219 34.3359 37.2188C34.7266 36.5547 35.4297 36.125 36.25 36.125C37.0312 36.125 37.7344 36.5547 38.125 37.2188C38.5156 37.9219 38.5156 38.7422 38.125 39.4062C37.7344 40.1094 37.0312 40.5 36.25 40.5Z" fill="#727B9A"/>
</svg>
