<svg width="60" height="60" viewBox="0 0 60 60" fill="none" xmlns="http://www.w3.org/2000/svg">
<rect width="60" height="60" rx="30" fill="#F4F5F9"/>
<path d="M22.8906 20.5391C23.2422 20.5781 23.4766 20.8906 23.3984 21.2422L22.5 26.6719C22.5 26.75 22.5 26.8672 22.5 26.9844V27.375C22.5 28.4297 23.3203 29.25 24.375 29.25H25.625H26.875C27.8906 29.25 28.75 28.4297 28.75 27.375V26.9844C28.75 26.8672 28.7109 26.75 28.7109 26.6719L27.8125 21.2422C27.7344 20.8906 27.9688 20.5781 28.3203 20.5391C28.6719 20.4609 28.9844 20.6953 29.0234 21.0469L29.9219 26.4766C29.9609 26.6328 30 26.7891 30 26.9844V27.375C30 29.1328 28.5938 30.5 26.875 30.5H26.25V39.875C26.25 40.2266 25.9375 40.5 25.625 40.5C25.2734 40.5 25 40.2266 25 39.875V30.5H24.375C22.6172 30.5 21.25 29.1328 21.25 27.375V26.9844C21.25 26.7891 21.25 26.6328 21.2891 26.4766L22.1875 21.0469C22.2266 20.6953 22.5391 20.4609 22.8906 20.5391ZM24.6875 20.5C25.0391 20.5391 25.3125 20.8125 25.3125 21.1641L25 27.4141C24.9609 27.7656 24.6875 28.0391 24.3359 28C23.9844 28 23.7109 27.6875 23.75 27.375L24.0625 21.125C24.0625 20.7734 24.375 20.5 24.6875 20.5ZM26.5234 20.5C26.875 20.5 27.1484 20.7734 27.1875 21.125L27.5 27.375C27.5 27.6875 27.2266 28 26.875 28C26.5625 28.0391 26.25 27.7656 26.25 27.4141L25.9375 21.1641C25.8984 20.8125 26.1719 20.5391 26.5234 20.5ZM33.75 27.375V31.75C33.75 32.4531 34.2969 33 35 33H37.5V21.7891H37.4609C37.4219 21.7891 37.2266 21.8281 36.9141 21.9453C36.5234 22.1016 36.0547 22.375 35.5859 22.8047C34.6484 23.5859 33.75 24.9531 33.75 27.375ZM37.5 20.5C38.1641 20.5 38.75 21.0859 38.75 21.75V33V33.625V34.25V39.875C38.75 40.2266 38.4375 40.5 38.125 40.5C37.7734 40.5 37.5 40.2266 37.5 39.875V34.25H35C33.5938 34.25 32.5 33.1562 32.5 31.75V27.375C32.5 21.75 36.875 20.5 37.5 20.5Z" fill="#727B9A"/>
</svg>
