<svg width="60" height="60" viewBox="0 0 60 60" fill="none" xmlns="http://www.w3.org/2000/svg">
<rect width="60" height="60" rx="30" fill="#F4F5F9"/>
<path d="M30.5859 24.7969C29.7656 23.7812 28.9062 22.8438 28.0078 21.9453C26.4062 23.4688 25.0391 25.1875 24.0625 26.8281C23.0469 28.5469 22.5 30.1484 22.5 31.3203C22.5 35.6953 25.8594 39.25 30 39.25C34.0625 39.25 37.5 35.6953 37.5 31.3203C37.5 30.4609 37.0703 29.0547 36.2891 27.4922C35.5859 26.125 34.6484 24.6797 33.5547 23.5469C33.2422 23.9375 32.8906 24.3281 32.5781 24.7578C32.3438 25.0703 31.9531 25.2656 31.6016 25.2656C31.2109 25.2656 30.8203 25.1094 30.5859 24.7969ZM31.5625 24.0156C31.8359 23.7031 32.0703 23.3516 32.3828 23C32.5781 22.7656 32.8125 22.5312 33.0078 22.3359C33.3203 22.0625 33.7891 22.0625 34.1016 22.3359C35.4688 23.625 36.6016 25.3438 37.4219 26.9453C38.2031 28.5469 38.75 30.1875 38.75 31.3203C38.75 36.3203 34.8438 40.5 30 40.5C25.0781 40.5 21.25 36.3203 21.25 31.3203C21.25 29.8359 21.9141 28 23.0078 26.1641C24.1016 24.3281 25.625 22.4141 27.4609 20.7344C27.7734 20.4609 28.2422 20.4609 28.5547 20.7344C29.2969 21.4375 30.0391 22.2188 30.7422 23.0391C31.0156 23.3516 31.2891 23.6641 31.5625 24.0156ZM26.25 32.4922H26.2109C26.2109 33.6641 26.6406 34.5625 27.3047 35.1875C28.0078 35.7734 28.9453 36.125 30.0391 36.125C30.8984 36.125 31.6797 35.8906 32.3828 35.4219C33.7109 34.4844 34.0625 32.6094 33.3594 31.125L32.4609 32.1797C31.9531 32.7656 31.0156 32.7656 30.5078 32.1406C29.8828 31.3203 28.7109 29.8359 28.0859 29.0156C26.7578 30.6953 26.25 31.5938 26.25 32.4922ZM29.0625 28.2344C29.6875 29.0547 30.8594 30.5391 31.4844 31.3594L32.4609 30.2266C32.9688 29.6406 33.9844 29.6016 34.4141 30.4219C35.3906 32.375 35.0781 35.0703 33.0859 36.4766C32.1484 37.0625 31.1719 37.375 30.0391 37.375C28.6719 37.375 27.4219 36.9453 26.4844 36.0859C25.5469 35.2266 25 34.0156 25 32.4922C25 31.0859 25.7812 29.875 27.1094 28.2344C27.6172 27.6094 28.5547 27.6094 29.0625 28.2344Z" fill="#727B9A"/>
</svg>
