<svg width="21" height="21" viewBox="0 0 21 21" fill="none" xmlns="http://www.w3.org/2000/svg">
<path d="M10.5 20.5C6.90625 20.5 3.625 18.625 1.82812 15.5C0.03125 12.4141 0.03125 8.625 1.82812 5.5C3.625 2.41406 6.90625 0.5 10.5 0.5C14.0547 0.5 17.3359 2.41406 19.1328 5.5C20.9297 8.625 20.9297 12.4141 19.1328 15.5C17.3359 18.625 14.0547 20.5 10.5 20.5ZM14.9141 8.66406H14.875C15.2656 8.3125 15.2656 7.72656 14.875 7.33594C14.5234 6.98438 13.9375 6.98438 13.5859 7.33594L9.25 11.7109L7.41406 9.875C7.02344 9.48438 6.4375 9.48438 6.08594 9.875C5.69531 10.2266 5.69531 10.8125 6.08594 11.1641L8.58594 13.6641C8.9375 14.0547 9.52344 14.0547 9.91406 13.6641L14.9141 8.66406Z" fill="#08BB25"/>
</svg>
