<svg width="48" height="48" viewBox="0 0 48 48" fill="none" xmlns="http://www.w3.org/2000/svg">
<rect width="48" height="48" rx="24" fill="#F4F5F9"/>
<path d="M31.6562 15.9453C31.8906 15.7109 32.3203 15.7109 32.5547 15.9453C32.7891 16.1797 32.7891 16.6094 32.5547 16.8438L24.8594 24.5L32.5547 32.1953C32.7891 32.4297 32.7891 32.8594 32.5547 33.0938C32.3203 33.3281 31.8906 33.3281 31.6562 33.0938L24 25.3984L16.3047 33.0938C16.0703 33.3281 15.6406 33.3281 15.4062 33.0938C15.1719 32.8594 15.1719 32.4297 15.4062 32.1953L23.1016 24.5L15.4062 16.8438C15.1719 16.6094 15.1719 16.1797 15.4062 15.9453C15.6406 15.7109 16.0703 15.7109 16.3047 15.9453L24 23.6406L31.6562 15.9453Z" fill="#030A21"/>
</svg>
