<svg width="61" height="60" viewBox="0 0 61 60" fill="none" xmlns="http://www.w3.org/2000/svg">
<rect x="0.5" width="60" height="60" rx="30" fill="#F4F5F9"/>
<path d="M30.8906 20.6562L41.5156 30.0312C41.7891 30.2656 41.7891 30.6562 41.5938 30.9297C41.3594 31.2031 40.9688 31.2031 40.6953 30.9688L39.25 29.6797V37.375C39.25 39.1328 37.8438 40.5 36.125 40.5H24.875C23.1172 40.5 21.75 39.1328 21.75 37.375V29.6797L20.2656 30.9688C20.0312 31.2031 19.6016 31.2031 19.4062 30.9297C19.1719 30.6562 19.1719 30.2656 19.4453 30.0312L30.0703 20.6562C30.3047 20.4609 30.6562 20.4609 30.8906 20.6562ZM23 37.375C23 38.4297 23.8203 39.25 24.875 39.25H27.375V33C27.375 32.3359 27.9219 31.75 28.625 31.75H32.375C33.0391 31.75 33.625 32.3359 33.625 33V39.25H36.125C37.1406 39.25 38 38.4297 38 37.375V28.5859L30.5 21.9844L23 28.5859V37.375ZM28.625 39.25H32.375V33H28.625V39.25Z" fill="#727B9A"/>
</svg>
