<svg width="61" height="60" viewBox="0 0 61 60" fill="none" xmlns="http://www.w3.org/2000/svg">
<rect x="0.5" width="60" height="60" rx="30" fill="#F4F5F9"/>
<path d="M19.875 20.5H21.3203C22.1406 20.5 22.8438 21.0078 23.1172 21.75H40.3047C41.125 21.75 41.7109 22.5312 41.5156 23.3125L39.875 29.875C39.6016 30.9688 38.5859 31.75 37.4531 31.75H25.1875L25.4609 33.2734C25.5781 33.8594 26.125 34.25 26.7109 34.25H38.625C38.9375 34.25 39.25 34.5625 39.25 34.875C39.25 35.2266 38.9375 35.5 38.625 35.5H26.7109C25.5 35.5 24.4844 34.6797 24.25 33.5078L21.9453 22.2578C21.9062 21.9844 21.6328 21.75 21.3203 21.75H19.875C19.5234 21.75 19.25 21.4766 19.25 21.125C19.25 20.8125 19.5234 20.5 19.875 20.5ZM23.3906 23L24.9141 30.5H37.4531C38.0391 30.5 38.5469 30.1094 38.6641 29.5625L40.3047 23H23.3906ZM25.8125 38.3125C25.8125 38.8594 26.2031 39.25 26.75 39.25C27.2578 39.25 27.6875 38.8594 27.6875 38.3125C27.6875 37.8047 27.2578 37.375 26.75 37.375C26.2031 37.375 25.8125 37.8047 25.8125 38.3125ZM28.9375 38.3125C28.9375 39.1328 28.5078 39.8359 27.8438 40.2266C27.1406 40.6172 26.3203 40.6172 25.6562 40.2266C24.9531 39.8359 24.5625 39.1328 24.5625 38.3125C24.5625 37.5312 24.9531 36.8281 25.6562 36.4375C26.3203 36.0469 27.1406 36.0469 27.8438 36.4375C28.5078 36.8281 28.9375 37.5312 28.9375 38.3125ZM36.75 37.375C36.2031 37.375 35.8125 37.8047 35.8125 38.3125C35.8125 38.8594 36.2031 39.25 36.75 39.25C37.2578 39.25 37.6875 38.8594 37.6875 38.3125C37.6875 37.8047 37.2578 37.375 36.75 37.375ZM36.75 40.5C35.9297 40.5 35.2266 40.1094 34.8359 39.4062C34.4453 38.7422 34.4453 37.9219 34.8359 37.2188C35.2266 36.5547 35.9297 36.125 36.75 36.125C37.5312 36.125 38.2344 36.5547 38.625 37.2188C39.0156 37.9219 39.0156 38.7422 38.625 39.4062C38.2344 40.1094 37.5312 40.5 36.75 40.5Z" fill="#727B9A"/>
</svg>
