<svg width="61" height="60" viewBox="0 0 61 60" fill="none" xmlns="http://www.w3.org/2000/svg">
<rect x="0.5" width="60" height="60" rx="30" fill="#F4F5F9"/>
<path d="M23.3906 20.5391C23.7422 20.5781 23.9766 20.8906 23.8984 21.2422L23 26.6719C23 26.75 23 26.8672 23 26.9844V27.375C23 28.4297 23.8203 29.25 24.875 29.25H26.125H27.375C28.3906 29.25 29.25 28.4297 29.25 27.375V26.9844C29.25 26.8672 29.2109 26.75 29.2109 26.6719L28.3125 21.2422C28.2344 20.8906 28.4688 20.5781 28.8203 20.5391C29.1719 20.4609 29.4844 20.6953 29.5234 21.0469L30.4219 26.4766C30.4609 26.6328 30.5 26.7891 30.5 26.9844V27.375C30.5 29.1328 29.0938 30.5 27.375 30.5H26.75V39.875C26.75 40.2266 26.4375 40.5 26.125 40.5C25.7734 40.5 25.5 40.2266 25.5 39.875V30.5H24.875C23.1172 30.5 21.75 29.1328 21.75 27.375V26.9844C21.75 26.7891 21.75 26.6328 21.7891 26.4766L22.6875 21.0469C22.7266 20.6953 23.0391 20.4609 23.3906 20.5391ZM25.1875 20.5C25.5391 20.5391 25.8125 20.8125 25.8125 21.1641L25.5 27.4141C25.4609 27.7656 25.1875 28.0391 24.8359 28C24.4844 28 24.2109 27.6875 24.25 27.375L24.5625 21.125C24.5625 20.7734 24.875 20.5 25.1875 20.5ZM27.0234 20.5C27.375 20.5 27.6484 20.7734 27.6875 21.125L28 27.375C28 27.6875 27.7266 28 27.375 28C27.0625 28.0391 26.75 27.7656 26.75 27.4141L26.4375 21.1641C26.3984 20.8125 26.6719 20.5391 27.0234 20.5ZM34.25 27.375V31.75C34.25 32.4531 34.7969 33 35.5 33H38V21.7891H37.9609C37.9219 21.7891 37.7266 21.8281 37.4141 21.9453C37.0234 22.1016 36.5547 22.375 36.0859 22.8047C35.1484 23.5859 34.25 24.9531 34.25 27.375ZM38 20.5C38.6641 20.5 39.25 21.0859 39.25 21.75V33V33.625V34.25V39.875C39.25 40.2266 38.9375 40.5 38.625 40.5C38.2734 40.5 38 40.2266 38 39.875V34.25H35.5C34.0938 34.25 33 33.1562 33 31.75V27.375C33 21.75 37.375 20.5 38 20.5Z" fill="#727B9A"/>
</svg>
