<svg width="61" height="60" viewBox="0 0 61 60" fill="none" xmlns="http://www.w3.org/2000/svg">
<rect x="0.5" width="60" height="60" rx="30" fill="#F4F5F9"/>
<path d="M31.0859 24.7969C30.2656 23.7812 29.4062 22.8438 28.5078 21.9453C26.9062 23.4688 25.5391 25.1875 24.5625 26.8281C23.5469 28.5469 23 30.1484 23 31.3203C23 35.6953 26.3594 39.25 30.5 39.25C34.5625 39.25 38 35.6953 38 31.3203C38 30.4609 37.5703 29.0547 36.7891 27.4922C36.0859 26.125 35.1484 24.6797 34.0547 23.5469C33.7422 23.9375 33.3906 24.3281 33.0781 24.7578C32.8438 25.0703 32.4531 25.2656 32.1016 25.2656C31.7109 25.2656 31.3203 25.1094 31.0859 24.7969ZM32.0625 24.0156C32.3359 23.7031 32.5703 23.3516 32.8828 23C33.0781 22.7656 33.3125 22.5312 33.5078 22.3359C33.8203 22.0625 34.2891 22.0625 34.6016 22.3359C35.9688 23.625 37.1016 25.3438 37.9219 26.9453C38.7031 28.5469 39.25 30.1875 39.25 31.3203C39.25 36.3203 35.3438 40.5 30.5 40.5C25.5781 40.5 21.75 36.3203 21.75 31.3203C21.75 29.8359 22.4141 28 23.5078 26.1641C24.6016 24.3281 26.125 22.4141 27.9609 20.7344C28.2734 20.4609 28.7422 20.4609 29.0547 20.7344C29.7969 21.4375 30.5391 22.2188 31.2422 23.0391C31.5156 23.3516 31.7891 23.6641 32.0625 24.0156ZM26.75 32.4922H26.7109C26.7109 33.6641 27.1406 34.5625 27.8047 35.1875C28.5078 35.7734 29.4453 36.125 30.5391 36.125C31.3984 36.125 32.1797 35.8906 32.8828 35.4219C34.2109 34.4844 34.5625 32.6094 33.8594 31.125L32.9609 32.1797C32.4531 32.7656 31.5156 32.7656 31.0078 32.1406C30.3828 31.3203 29.2109 29.8359 28.5859 29.0156C27.2578 30.6953 26.75 31.5938 26.75 32.4922ZM29.5625 28.2344C30.1875 29.0547 31.3594 30.5391 31.9844 31.3594L32.9609 30.2266C33.4688 29.6406 34.4844 29.6016 34.9141 30.4219C35.8906 32.375 35.5781 35.0703 33.5859 36.4766C32.6484 37.0625 31.6719 37.375 30.5391 37.375C29.1719 37.375 27.9219 36.9453 26.9844 36.0859C26.0469 35.2266 25.5 34.0156 25.5 32.4922C25.5 31.0859 26.2812 29.875 27.6094 28.2344C28.1172 27.6094 29.0547 27.6094 29.5625 28.2344Z" fill="#727B9A"/>
</svg>
