<svg width="300" height="64" viewBox="0 0 300 64" fill="none" xmlns="http://www.w3.org/2000/svg">
<path d="M17.24 18.88V13.72H38.88V18.88H30.76V43H25.16V18.88H17.24ZM39.7509 43V13.72H52.5509C53.7509 13.72 54.8176 13.88 55.7509 14.2C56.6843 14.4933 57.5109 14.9867 58.2309 15.68C58.9776 16.3467 59.5509 17.2933 59.9509 18.52C60.3509 19.72 60.5509 21.16 60.5509 22.84C60.5509 24.2267 60.4309 25.44 60.1909 26.48C59.9509 27.52 59.6843 28.32 59.3909 28.88C59.0976 29.4133 58.6976 29.8933 58.1909 30.32C57.6843 30.72 57.2976 30.9733 57.0309 31.08C56.7643 31.1867 56.3776 31.32 55.8709 31.48L61.4309 43H55.1109L50.2709 31.92L45.3509 31.36V43H39.7509ZM45.3909 26.96H52.0309C52.5643 26.96 52.9909 26.92 53.3109 26.84C53.6309 26.7333 53.9109 26.5333 54.1509 26.24C54.4176 25.9467 54.6043 25.5333 54.7109 25C54.8443 24.44 54.9109 23.72 54.9109 22.84C54.9109 21.2667 54.6709 20.1867 54.1909 19.6C53.7109 18.9867 52.9909 18.68 52.0309 18.68H45.3909V26.96ZM61.3678 43L71.2478 13.72H77.6078L87.1278 43H81.1678L79.0878 36.52H69.4878L67.3678 43H61.3678ZM70.9678 31.56H77.7678L74.4878 21.08L70.9678 31.56ZM87.3431 28.28C87.3431 26.3067 87.4231 24.5867 87.5831 23.12C87.7698 21.6533 88.0898 20.2933 88.5431 19.04C88.9965 17.76 89.5965 16.72 90.3431 15.92C91.0898 15.12 92.0365 14.5067 93.1831 14.08C94.3565 13.6267 95.7298 13.4 97.3031 13.4C101.116 13.4 104.516 13.84 107.503 14.72V19.12C107.503 19.12 107.436 19.12 107.303 19.12C107.196 19.0933 107.036 19.0667 106.823 19.04C106.61 19.0133 106.356 18.9867 106.063 18.96C105.77 18.9333 105.436 18.9067 105.063 18.88C104.69 18.8533 104.303 18.8267 103.903 18.8C103.503 18.7733 103.076 18.7467 102.623 18.72C102.196 18.6933 101.756 18.6667 101.303 18.64C100.876 18.6133 100.423 18.6 99.9431 18.6C99.4631 18.5733 99.0231 18.56 98.6231 18.56C97.8765 18.56 97.2498 18.6 96.7431 18.68C96.2631 18.7333 95.7831 18.88 95.3031 19.12C94.8498 19.36 94.4898 19.7067 94.2231 20.16C93.9565 20.5867 93.7165 21.16 93.5031 21.88C93.2898 22.6 93.1431 23.4933 93.0631 24.56C92.9831 25.6 92.9431 26.8667 92.9431 28.36C92.9431 31.8267 93.3298 34.32 94.1031 35.84C94.9031 37.3333 96.4098 38.08 98.6231 38.08C99.8765 38.08 101.236 38.0533 102.703 38C104.196 37.9467 105.37 37.8933 106.223 37.84L107.503 37.76V42.12C104.89 42.92 101.49 43.2933 97.3031 43.24C95.4898 43.2133 93.9298 42.8667 92.6231 42.2C91.3165 41.5067 90.2765 40.5067 89.5031 39.2C88.7565 37.8667 88.2098 36.32 87.8631 34.56C87.5165 32.7733 87.3431 30.68 87.3431 28.28ZM108.955 43V13.72H114.315V25.96H116.675L124.115 13.72H130.635L121.675 28.4L130.635 43H124.115L116.675 30.92H114.355V43H108.955Z" fill="#727B9A"/>
<path d="M142.04 43L151.92 13.72H158.28L167.8 43H161.84L159.76 36.52H150.16L148.04 43H142.04ZM151.64 31.56H158.44L155.16 21.08L151.64 31.56ZM168.415 43V13.72H181.015C181.842 13.72 182.588 13.7867 183.255 13.92C183.948 14.0267 184.668 14.2667 185.415 14.64C186.188 15.0133 186.828 15.52 187.335 16.16C187.868 16.8 188.295 17.68 188.615 18.8C188.962 19.92 189.135 21.24 189.135 22.76C189.135 23.8267 189.055 24.8133 188.895 25.72C188.762 26.6267 188.575 27.4 188.335 28.04C188.095 28.6533 187.802 29.2133 187.455 29.72C187.108 30.2 186.735 30.5867 186.335 30.88C185.935 31.1467 185.508 31.3867 185.055 31.6C184.602 31.8133 184.148 31.96 183.695 32.04C183.242 32.0933 182.788 32.1467 182.335 32.2C181.882 32.2267 181.442 32.2267 181.015 32.2C180.242 32.1467 178.908 32.0133 177.015 31.8C175.122 31.5867 174.122 31.4533 174.015 31.4V43H168.415ZM174.015 27.24H180.575C181.535 27.24 182.255 26.92 182.735 26.28C183.242 25.64 183.495 24.48 183.495 22.8C183.468 20.0533 182.495 18.68 180.575 18.68H174.015V27.24ZM190.478 43V13.72H203.078C203.904 13.72 204.651 13.7867 205.318 13.92C206.011 14.0267 206.731 14.2667 207.478 14.64C208.251 15.0133 208.891 15.52 209.398 16.16C209.931 16.8 210.358 17.68 210.678 18.8C211.024 19.92 211.198 21.24 211.198 22.76C211.198 23.8267 211.118 24.8133 210.958 25.72C210.824 26.6267 210.638 27.4 210.398 28.04C210.158 28.6533 209.864 29.2133 209.518 29.72C209.171 30.2 208.798 30.5867 208.398 30.88C207.998 31.1467 207.571 31.3867 207.118 31.6C206.664 31.8133 206.211 31.96 205.758 32.04C205.304 32.0933 204.851 32.1467 204.398 32.2C203.944 32.2267 203.504 32.2267 203.078 32.2C202.304 32.1467 200.971 32.0133 199.078 31.8C197.184 31.5867 196.184 31.4533 196.078 31.4V43H190.478ZM196.078 27.24H202.638C203.598 27.24 204.318 26.92 204.798 26.28C205.304 25.64 205.558 24.48 205.558 22.8C205.531 20.0533 204.558 18.68 202.638 18.68H196.078V27.24Z" fill="#030A21"/>
</svg>
