<svg width="18" height="21" viewBox="0 0 18 21" fill="none" xmlns="http://www.w3.org/2000/svg">
<path d="M5.25 1.125V3H12.75V1.125C12.75 0.8125 13.0234 0.5 13.375 0.5C13.6875 0.5 14 0.8125 14 1.125V3H15.25C16.6172 3 17.75 4.13281 17.75 5.5V6.75V8V18C17.75 19.4062 16.6172 20.5 15.25 20.5H2.75C1.34375 20.5 0.25 19.4062 0.25 18V8V6.75V5.5C0.25 4.13281 1.34375 3 2.75 3H4V1.125C4 0.8125 4.27344 0.5 4.625 0.5C4.9375 0.5 5.25 0.8125 5.25 1.125ZM1.5 8V18C1.5 18.7031 2.04688 19.25 2.75 19.25H15.25C15.9141 19.25 16.5 18.7031 16.5 18V8H1.5ZM2.75 4.25C2.04688 4.25 1.5 4.83594 1.5 5.5V6.75H16.5V5.5C16.5 4.83594 15.9141 4.25 15.25 4.25H2.75ZM4.3125 10.5C4.11719 10.5 4 10.6562 4 10.8125V13.9375C4 14.1328 4.11719 14.25 4.3125 14.25H7.4375C7.59375 14.25 7.75 14.1328 7.75 13.9375V10.8125C7.75 10.6562 7.59375 10.5 7.4375 10.5H4.3125ZM2.75 10.8125C2.75 9.95312 3.41406 9.25 4.3125 9.25H7.4375C8.29688 9.25 9 9.95312 9 10.8125V13.9375C9 14.8359 8.29688 15.5 7.4375 15.5H4.3125C3.41406 15.5 2.75 14.8359 2.75 13.9375V10.8125Z" fill="#727B9A"/>
</svg>
