<svg width="61" height="60" viewBox="0 0 61 60" fill="none" xmlns="http://www.w3.org/2000/svg">
<rect x="0.5" width="60" height="60" rx="30" fill="#F4F5F9"/>
<path d="M19.0547 27.7266C18.7812 27.9609 18.3906 27.9609 18.1562 27.7266C17.9219 27.4531 17.9219 27.0625 18.1562 26.8281C21.3203 23.7031 25.6953 21.75 30.5 21.75C35.2656 21.75 39.6406 23.7031 42.8047 26.8281C43.0391 27.0625 43.0391 27.4531 42.8047 27.7266C42.5703 27.9609 42.1797 27.9609 41.9062 27.7266C38.9766 24.7969 34.9531 23 30.5 23C26.0078 23 21.9844 24.7969 19.0547 27.7266ZM30.5 29.25C27.7266 29.25 25.2266 30.3828 23.4297 32.1797C23.1953 32.4141 22.8047 32.4141 22.5312 32.1797C22.2969 31.9453 22.2969 31.5547 22.5312 31.3203C24.5625 29.2891 27.375 28.0391 30.5 28.0391C33.5859 28.0391 36.3984 29.2891 38.4297 31.3203C38.6641 31.5547 38.6641 31.9453 38.4297 32.1797C38.1953 32.4141 37.8047 32.4141 37.5312 32.1797C35.7344 30.3828 33.2344 29.25 30.5 29.25ZM30.5 35.5C29.7969 35.5 29.25 36.0859 29.25 36.75C29.25 37.4531 29.7969 38 30.5 38C31.1641 38 31.75 37.4531 31.75 36.75C31.75 36.0859 31.1641 35.5 30.5 35.5ZM30.5 39.25C29.6016 39.25 28.7812 38.7812 28.3125 38C27.8828 37.2578 27.8828 36.2812 28.3125 35.5C28.7812 34.7578 29.6016 34.25 30.5 34.25C31.3594 34.25 32.1797 34.7578 32.6484 35.5C33.0781 36.2812 33.0781 37.2578 32.6484 38C32.1797 38.7812 31.3594 39.25 30.5 39.25Z" fill="#727B9A"/>
</svg>
