<svg width="61" height="60" viewBox="0 0 61 60" fill="none" xmlns="http://www.w3.org/2000/svg">
<rect x="0.5" width="60" height="60" rx="30" fill="#F4F5F9"/>
<path d="M24.9141 24.3672L23.8203 28.0391C23.9375 28.0391 24.0938 28 24.25 28H36.75C36.8672 28 37.0234 28.0391 37.1406 28.0391L36.0469 24.3672C35.8125 23.5469 35.0703 23 34.25 23H26.7109C25.8906 23 25.1484 23.5469 24.9141 24.3672ZM23.3906 29.4062C22.4141 29.7578 21.75 30.6953 21.75 31.75V35.5H39.25V31.75C39.25 30.6953 38.5469 29.7578 37.5703 29.4062C37.2969 29.3281 37.0234 29.25 36.7109 29.25H24.25C23.9375 29.25 23.6641 29.3281 23.3906 29.4062ZM22.375 28.5078V28.4688L23.7422 23.9766C24.1328 22.6875 25.3438 21.75 26.7109 21.75H34.25C35.6172 21.75 36.8281 22.6875 37.2578 23.9766L38.5859 28.4688V28.5078C39.7188 29.1719 40.5 30.3828 40.5 31.75V35.5V36.125V36.75V38.625C40.5 38.9766 40.1875 39.25 39.875 39.25C39.5234 39.25 39.25 38.9766 39.25 38.625V36.75H21.75V38.625C21.75 38.9766 21.4375 39.25 21.125 39.25C20.7734 39.25 20.5 38.9766 20.5 38.625V36.75V36.125V35.5V31.75C20.5 30.3828 21.2422 29.1719 22.375 28.5078ZM24.5625 31.125C25.0703 31.125 25.5 31.5547 25.5 32.0625C25.5 32.6094 25.0703 33 24.5625 33C24.0156 33 23.625 32.6094 23.625 32.0625C23.625 31.5547 24.0156 31.125 24.5625 31.125ZM35.5 32.0625C35.5 31.5547 35.8906 31.125 36.4375 31.125C36.9453 31.125 37.375 31.5547 37.375 32.0625C37.375 32.6094 36.9453 33 36.4375 33C35.8906 33 35.5 32.6094 35.5 32.0625Z" fill="#727B9A"/>
</svg>
