<svg width="61" height="60" viewBox="0 0 61 60" fill="none" xmlns="http://www.w3.org/2000/svg">
<rect x="0.5" width="60" height="60" rx="30" fill="#F4F5F9"/>
<path d="M30.5 39.25H30.4609C35.3047 39.25 39.2109 35.3438 39.2109 30.5C39.2109 29.875 39.1719 29.25 39.0156 28.6641L38.8594 29.6797C38.6641 30.8906 37.6094 31.75 36.3984 31.75H33.3125C32.1016 31.75 31.0469 30.8906 30.8516 29.6797L30.5391 27.8047C30.5 27.6484 30.5 27.5312 30.5 27.375H30.4609C30.4609 27.5312 30.4609 27.6484 30.4219 27.8047L30.1094 29.6797C29.9141 30.8906 28.8594 31.75 27.6484 31.75H24.5625C23.3516 31.75 22.2969 30.8906 22.1016 29.6797L21.9453 28.6641C21.7891 29.25 21.75 29.875 21.75 30.5C21.75 35.3438 25.6562 39.25 30.5 39.25ZM30.1094 26.125H30.8516C31.2812 25.3828 32.0625 24.875 33 24.875H36.7109C36.9062 24.875 37.0625 24.9141 37.2188 24.9531C35.6172 23 33.1953 21.75 30.5 21.75C27.7656 21.75 25.3438 23 23.7422 24.9531C23.8984 24.9141 24.0938 24.875 24.25 24.875H27.9609C28.8984 24.875 29.6797 25.3828 30.1094 26.125ZM30.5 40.5C26.9062 40.5 23.625 38.625 21.8281 35.5C20.0312 32.4141 20.0312 28.625 21.8281 25.5C23.625 22.4141 26.9062 20.5 30.5 20.5C34.0547 20.5 37.3359 22.4141 39.1328 25.5C40.9297 28.625 40.9297 32.4141 39.1328 35.5C37.3359 38.625 34.0547 40.5 30.5 40.5ZM26.0078 33.7812C26.2812 33.5859 26.6719 33.5859 26.9062 33.8594C27.6094 34.6797 28.7812 35.5 30.5 35.5C32.1797 35.5 33.3906 34.6797 34.0547 33.8594C34.2891 33.5859 34.6797 33.5859 34.9531 33.7812C35.2266 34.0156 35.2266 34.4062 35.0312 34.6797C34.1328 35.6953 32.6484 36.75 30.5 36.75C28.3125 36.75 26.8281 35.6953 25.9297 34.6797C25.7344 34.4062 25.7344 34.0156 26.0078 33.7812ZM31.7891 27.6094L32.1016 29.4844C32.1406 29.9141 32.4531 30.2656 32.8438 30.4219L34.6016 28.625H33.625C33.3516 28.625 33.1172 28.4688 33.0391 28.2734C32.9219 28.0391 33 27.7656 33.1562 27.5703L34.6016 26.125H33C32.2188 26.125 31.6328 26.8281 31.7891 27.6094ZM34.4844 30.5H36.3984C37.0234 30.5 37.5312 30.0703 37.6094 29.4844L37.9219 27.6094C38.0781 26.8281 37.4922 26.125 36.7109 26.125H36.3594L35.1094 27.375H36.125C36.3594 27.375 36.5938 27.5312 36.6719 27.7656C36.7891 28 36.7109 28.2734 36.5547 28.4688L34.4844 30.5ZM24.25 26.125C23.4688 26.125 22.8828 26.8281 23.0391 27.6094L23.3516 29.4844C23.3906 29.9141 23.7031 30.2656 24.0938 30.4219L25.8516 28.625H24.875C24.6016 28.625 24.3672 28.4688 24.2891 28.2734C24.1719 28.0391 24.25 27.7656 24.4062 27.5703L25.8516 26.125H24.25ZM27.8047 28.4688L25.7344 30.5H27.6484C28.2734 30.5 28.7812 30.0703 28.8594 29.4844L29.1719 27.6094C29.3281 26.8281 28.7422 26.125 27.9609 26.125H27.6094L26.3594 27.375H27.375C27.6094 27.375 27.8438 27.5312 27.9219 27.7656C28.0391 28 28 28.2734 27.8047 28.4688Z" fill="#727B9A"/>
</svg>
