<svg width="60" height="60" viewBox="0 0 60 60" fill="none" xmlns="http://www.w3.org/2000/svg">
<path d="M36.25 23H23.75C23.0469 23 22.5 23.5859 22.5 24.25V36.75C22.5 37.4531 23.0469 38 23.75 38H31.875V34.25C31.875 33.2344 32.6953 32.375 33.75 32.375H37.5V24.25C37.5 23.5859 36.9141 23 36.25 23ZM36.9531 33.625H33.75C33.3984 33.625 33.125 33.9375 33.125 34.25V37.4922L36.9531 33.625ZM23.75 21.75H36.25C37.6172 21.75 38.75 22.8828 38.75 24.25V32.6094C38.75 33.2734 38.4766 33.8984 38.0078 34.3672L33.8281 38.5469C33.3594 39.0156 32.7344 39.25 32.0703 39.25H23.75C22.3438 39.25 21.25 38.1562 21.25 36.75V24.25C21.25 22.8828 22.3438 21.75 23.75 21.75ZM26.25 35.1875C26.25 35.7344 25.8203 36.125 25.3125 36.125C24.7656 36.125 24.375 35.7344 24.375 35.1875C24.375 34.6797 24.7656 34.25 25.3125 34.25C25.8203 34.25 26.25 34.6797 26.25 35.1875ZM25.3125 24.875C25.8203 24.875 26.25 25.3047 26.25 25.8125C26.25 26.3594 25.8203 26.75 25.3125 26.75C24.7656 26.75 24.375 26.3594 24.375 25.8125C24.375 25.3047 24.7656 24.875 25.3125 24.875ZM26.25 30.5C26.25 31.0469 25.8203 31.4375 25.3125 31.4375C24.7656 31.4375 24.375 31.0469 24.375 30.5C24.375 29.9922 24.7656 29.5625 25.3125 29.5625C25.8203 29.5625 26.25 29.9922 26.25 30.5Z" fill="#727B9A"/>
</svg>
