<svg width="60" height="60" viewBox="0 0 60 60" fill="none" xmlns="http://www.w3.org/2000/svg">
<rect width="60" height="60" rx="30" fill="#F4F5F9"/>
<path d="M31.5234 20.6172C31.8359 20.4219 32.2266 20.5391 32.3828 20.8125L36.6016 28H38.7109H40H40.625C40.9375 28 41.25 28.3125 41.25 28.625C41.25 28.9766 40.9375 29.25 40.625 29.25H39.6875L37.3438 38.625C37.0703 39.7188 36.0547 40.5 34.9219 40.5H25.0781C23.9062 40.5 22.9297 39.7188 22.6172 38.625L20.3125 29.25H19.375C19.0234 29.25 18.75 28.9766 18.75 28.625C18.75 28.3125 19.0234 28 19.375 28H20H21.2891H23.3594L27.5781 20.8125C27.7344 20.5391 28.125 20.4219 28.4375 20.6172C28.7109 20.7734 28.8281 21.1641 28.6328 21.4766L24.8047 28H35.1562L31.3281 21.4766C31.1328 21.1641 31.25 20.7734 31.5234 20.6172ZM21.6016 29.25L23.8672 38.3125C23.9844 38.8594 24.4922 39.25 25.0781 39.25H34.9219C35.4688 39.25 35.9766 38.8594 36.1328 38.3125L38.3984 29.25H21.6016ZM27.5 32.375V36.125C27.5 36.4766 27.1875 36.75 26.875 36.75C26.5234 36.75 26.25 36.4766 26.25 36.125V32.375C26.25 32.0625 26.5234 31.75 26.875 31.75C27.1875 31.75 27.5 32.0625 27.5 32.375ZM30 31.75C30.3125 31.75 30.625 32.0625 30.625 32.375V36.125C30.625 36.4766 30.3125 36.75 30 36.75C29.6484 36.75 29.375 36.4766 29.375 36.125V32.375C29.375 32.0625 29.6484 31.75 30 31.75ZM33.75 32.375V36.125C33.75 36.4766 33.4375 36.75 33.125 36.75C32.7734 36.75 32.5 36.4766 32.5 36.125V32.375C32.5 32.0625 32.7734 31.75 33.125 31.75C33.4375 31.75 33.75 32.0625 33.75 32.375Z" fill="#727B9A"/>
</svg>
