<svg width="60" height="60" viewBox="0 0 60 60" fill="none" xmlns="http://www.w3.org/2000/svg">
<rect width="60" height="60" rx="30" fill="#F4F5F9"/>
<path d="M29.375 30.5C30.9375 30.5 32.3438 29.6797 33.125 28.3125C33.9453 26.9844 33.9453 25.3047 33.125 23.9375C32.3438 22.6094 30.9375 21.75 29.375 21.75C27.7734 21.75 26.3672 22.6094 25.5859 23.9375C24.7656 25.3047 24.7656 26.9844 25.5859 28.3125C26.3672 29.6797 27.7734 30.5 29.375 30.5ZM29.375 20.5C31.3672 20.5 33.2031 21.5938 34.2188 23.3125C35.2344 25.0703 35.2344 27.2188 34.2188 28.9375C33.2031 30.6953 31.3672 31.75 29.375 31.75C27.3438 31.75 25.5078 30.6953 24.4922 28.9375C23.4766 27.2188 23.4766 25.0703 24.4922 23.3125C25.5078 21.5938 27.3438 20.5 29.375 20.5ZM28.4375 24.875C28.4375 24.9141 28.3984 24.9141 28.4375 24.9922V25.0312C28.4375 25.0312 28.4375 25.0703 28.5938 25.1875C28.8281 25.3047 29.1406 25.3828 29.5312 25.5C29.9219 25.6172 30.3906 25.7344 30.7422 25.9688C31.1328 26.2031 31.5234 26.5938 31.5234 27.2188C31.5625 27.9219 31.1719 28.3906 30.7031 28.6641C30.4688 28.7812 30.2344 28.8594 29.9609 28.8984V29.3281C29.9609 29.6797 29.6875 29.9531 29.3359 29.9531C29.0234 29.9531 28.7109 29.6797 28.7109 29.3281V28.8984C28.3984 28.8203 28.0859 28.7031 27.8125 28.625C27.7344 28.5859 27.6562 28.5859 27.6172 28.5469C27.2656 28.4688 27.1094 28.1172 27.1875 27.7656C27.3047 27.4531 27.6562 27.2578 27.9688 27.375C28.0469 27.375 28.125 27.4141 28.2031 27.4531C28.6719 27.5703 28.9844 27.6875 29.375 27.6875C29.6484 27.7266 29.9219 27.6484 30.0781 27.5703C30.1953 27.5312 30.2344 27.4531 30.2344 27.4531C30.2734 27.4141 30.3125 27.3359 30.2734 27.2578C30.2734 27.2188 30.2734 27.1406 30.1172 27.0234C29.8828 26.9062 29.6094 26.8281 29.2188 26.7109H29.1406C28.7891 26.5938 28.3594 26.4766 28.0078 26.2812C27.6172 26.0859 27.2266 25.7344 27.1875 25.1094C27.1094 24.3672 27.5781 23.8984 28.0078 23.625C28.2422 23.5078 28.4766 23.4297 28.7109 23.3906V23C28.7109 22.6875 29.0234 22.375 29.3359 22.375C29.6875 22.375 29.9609 22.6875 29.9609 23V23.3906C30.2344 23.4297 30.4688 23.4688 30.6641 23.5469C31.0156 23.625 31.2109 23.9375 31.1328 24.2891C31.0547 24.6406 30.7031 24.8359 30.3906 24.7578C30 24.6406 29.6484 24.6016 29.3359 24.6016C29.1016 24.5625 28.8281 24.6406 28.5938 24.7578C28.5156 24.7969 28.4766 24.8359 28.4375 24.875ZM24.6484 32.9219C25.1562 32.5703 25.7422 32.375 26.3672 32.375H32.1875C33.3594 32.375 34.375 33.3906 34.375 34.5625C34.375 34.9141 34.2969 35.2266 34.1406 35.5H34.375L38.0469 33.3125C38.3984 33.1172 38.75 33 39.1406 33H39.1797C40.3125 33 41.25 33.9375 41.25 35.0703C41.25 35.7344 40.8984 36.3984 40.3125 36.7891L35.625 39.7969C34.9219 40.2656 34.1016 40.5 33.2422 40.5H19.375C19.0234 40.5 18.75 40.2266 18.75 39.875C18.75 39.5625 19.0234 39.25 19.375 39.25H33.2422C33.8672 39.25 34.4531 39.0938 34.9609 38.7812L39.6094 35.7344C39.8438 35.5781 39.9609 35.3438 39.9609 35.0703C39.9609 34.6406 39.6094 34.25 39.1797 34.25H39.1406C38.9844 34.25 38.8281 34.3281 38.7109 34.3672L34.8438 36.6719C34.7656 36.75 34.6484 36.75 34.5312 36.75H32.1875H31.25H28.75C28.3984 36.75 28.125 36.4766 28.125 36.125C28.125 35.8125 28.3984 35.5 28.75 35.5H31.25H32.1875C32.6953 35.5 33.125 35.1094 33.125 34.5625C33.125 34.0547 32.6953 33.625 32.1875 33.625H26.3672C25.9766 33.625 25.625 33.7422 25.3125 33.9766L22.1875 36.0469C22.1094 36.125 21.9922 36.125 21.875 36.125H19.375C19.0234 36.125 18.75 35.8516 18.75 35.5C18.75 35.1875 19.0234 34.875 19.375 34.875H21.6797L24.6484 32.9219Z" fill="#727B9A"/>
</svg>
