<svg width="60" height="60" viewBox="0 0 60 60" fill="none" xmlns="http://www.w3.org/2000/svg">
<rect width="60" height="60" rx="30" fill="#F4F5F9"/>
<path d="M25.7422 20.5H25.9766C26.0547 20.5 26.0938 20.5391 26.1328 20.5391C26.1719 20.5391 26.2109 20.5 26.25 20.5H33.75C33.75 20.5 33.7891 20.5391 33.8281 20.5391C33.8672 20.5391 33.9453 20.5 33.9844 20.5H34.2188C35.3125 20.5 36.3672 20.8906 37.1875 21.5938L40.2734 24.0938L41.9922 25.5L41.5625 25.9688L41.9922 25.5C42.5 25.9297 42.5781 26.7109 42.1484 27.2578L39.375 30.6172C38.9453 31.1641 38.1641 31.2422 37.6172 30.8125L36.25 29.6797V38.3125C36.25 39.5234 35.2344 40.5 34.0625 40.5H25.9375C24.7266 40.5 23.75 39.5234 23.75 38.3125V29.6797L22.3438 30.8125C21.7969 31.2422 21.0156 31.1641 20.5859 30.6562L17.8125 27.2578C17.3828 26.7109 17.4609 25.9297 17.9688 25.5L19.6875 24.0938L22.7734 21.5938C23.5938 20.8906 24.6484 20.5 25.7422 20.5ZM27.3438 21.75C27.7344 22.8438 28.75 23.625 30 23.625C31.2109 23.625 32.2656 22.8438 32.6172 21.75H27.3438ZM23.5547 22.5312L20.4688 25.0703L18.7891 26.4766L21.5625 29.8359L23.2422 28.4688L23.9453 27.8828C24.1406 27.7266 24.4141 27.6875 24.6094 27.8047C24.8438 27.8828 25 28.1172 25 28.3516V38.3125C25 38.8594 25.3906 39.25 25.9375 39.25H34.0625C34.5703 39.25 35 38.8594 35 38.3125V28.3516C35 28.1172 35.1172 27.8828 35.3516 27.8047C35.5469 27.6875 35.8203 27.7266 36.0156 27.8828L36.7188 28.4688L38.3984 29.8359L41.1719 26.4766L39.4922 25.0703L36.4062 22.5312C35.7812 22.0234 35 21.75 34.2188 21.75H33.9844C33.9844 21.7891 33.9844 21.7891 33.9453 21.7891C33.9453 21.7891 33.9062 21.8281 33.9062 21.8672C33.4375 23.625 31.875 24.875 30 24.875C28.0859 24.875 26.5234 23.625 26.0547 21.8672C26.0547 21.8281 26.0156 21.7891 26.0156 21.7891C25.9766 21.7891 25.9766 21.75 25.9766 21.75H25.7422C24.9609 21.75 24.1797 22.0234 23.5547 22.5312Z" fill="#727B9A"/>
</svg>
