<svg width="60" height="60" viewBox="0 0 60 60" fill="none" xmlns="http://www.w3.org/2000/svg">
<rect width="60" height="60" rx="30" fill="#F4F5F9"/>
<path d="M31.3281 34.1719C31.6797 34.4062 31.875 34.7969 31.875 35.1875V38.3125C31.875 38.8594 32.2656 39.25 32.8125 39.25H33.4375C33.9453 39.25 34.375 38.8594 34.375 38.3125V30.7344H34.3359L30.7422 28.625H30.7031H25H24.0625H22.5V38.3125C22.5 38.8594 22.8906 39.25 23.4375 39.25H24.0625C24.5703 39.25 25 38.8594 25 38.3125V35.1875C25 34.7969 25.1562 34.4062 25.5078 34.1719C25.8203 33.9375 26.25 33.8594 26.6016 33.9766C27.1875 34.1719 27.7734 34.2891 28.4375 34.2891C29.0625 34.2891 29.6484 34.1719 30.2344 33.9766C30.625 33.8594 31.0156 33.9375 31.3281 34.1719ZM34.5703 29.0547C34.6875 28.4688 35.1953 28.0391 35.8203 28.0391H37.5C38.8672 28.0391 40 26.9062 40 25.5391V24.875C40 24.5625 39.6875 24.25 39.375 24.25H38.125C37.7734 24.25 37.4609 24.1328 37.2266 23.8984L36.5234 23.1953C36.4062 23.0781 36.25 23 36.0938 23H34.375C33.9453 23 33.5938 22.8438 33.3594 22.5312L32.8906 21.9062L31.9531 27.6094C31.9141 27.6875 31.9141 27.7656 31.875 27.8438L34.5312 29.4062L34.5703 29.0547ZM20.5078 26.75C20.8594 27.1406 21.3672 27.375 21.9531 27.375H22.5H24.0625H25H30.7031L31.6797 21.4766C31.7969 20.9297 32.2656 20.5 32.8516 20.5C33.2031 20.5 33.5547 20.6953 33.7891 20.9688L34.375 21.75H36.0938C36.5625 21.75 37.0703 21.9844 37.4219 22.3359L38.125 23H39.375C40.3906 23 41.25 23.8594 41.25 24.875V25.5C41.25 27.5703 39.5703 29.25 37.5 29.25H35.8203L35.625 30.5V38.3125C35.625 39.5234 34.6094 40.5 33.4375 40.5H32.8125C31.6016 40.5 30.625 39.5234 30.625 38.3125V36.4766V35.1875C30.1953 35.3047 29.8047 35.3828 29.375 35.4609C29.0625 35.5 28.75 35.5 28.4375 35.5C28.0859 35.5 27.7734 35.5 27.5 35.4609C27.0703 35.3828 26.6406 35.3047 26.25 35.1875V36.4766V38.3125C26.25 39.5234 25.2344 40.5 24.0625 40.5H23.4375C22.2266 40.5 21.25 39.5234 21.25 38.3125V28.625C21.25 28.625 21.25 28.5859 21.25 28.5469C21.2109 28.5469 21.1719 28.5469 21.1719 28.5469C20.0781 28.2734 19.1797 27.4141 18.9062 26.2812L18.75 25.6562C18.6719 25.3438 18.8672 24.9922 19.2188 24.9141C19.5312 24.8359 19.8828 25.0312 19.9609 25.3828L20.1172 25.9688C20.1172 26.0078 20.1562 26.0859 20.1562 26.125C20.2344 26.3594 20.3516 26.5547 20.5078 26.75ZM35.625 24.25C35.9375 24.25 36.25 24.5625 36.25 24.875C36.25 25.2266 35.9375 25.5 35.625 25.5C35.2734 25.5 35 25.2266 35 24.875C35 24.5625 35.2734 24.25 35.625 24.25Z" fill="#727B9A"/>
</svg>
