<svg width="60" height="60" viewBox="0 0 60 60" fill="none" xmlns="http://www.w3.org/2000/svg">
<rect width="60" height="60" rx="30" fill="#F4F5F9"/>
<path d="M25.8594 24.25C26.2891 23.8594 26.7578 23.5859 27.1875 23.3125C27.5 23.1562 27.8516 23.2734 28.0469 23.5859C28.2031 23.8594 28.0859 24.25 27.7734 24.4062C27.3438 24.6406 26.9141 24.9922 26.4453 25.4219C24.6094 27.2969 24.6875 29.1719 25.1953 30.2266L29.7266 25.6953C29.8438 25.5781 30 25.5 30.1562 25.5H37.3828C36.9922 24.4453 35.7031 23 33.125 23C32.3438 23 31.6797 23.1562 31.1328 23.3516C30.8984 23.4297 30.625 23.3516 30.4688 23.1562C29.8047 22.4141 28.6328 21.75 26.875 21.75C24.2578 21.75 22.9688 23.1953 22.5781 24.25H25.8594ZM26.875 20.5C28.75 20.5 30.1562 21.1641 31.0938 22.0234C31.6797 21.8672 32.3828 21.75 33.125 21.75C36.4062 21.75 38.2031 23.7031 38.6328 25.3828C38.8281 26.2031 38.125 26.75 37.5 26.75H32.3828C32.4609 27.0625 32.5 27.375 32.5391 27.7266C32.6953 29.4844 32.6562 31.7891 31.875 34.3281C34.3359 34.6406 36.25 36.7109 36.25 39.25C36.25 39.9531 35.6641 40.5 35 40.5H22.5C21.7969 40.5 21.25 39.9531 21.25 39.25C21.25 36.5156 23.4766 34.25 26.25 34.25H27.5391C28.5547 32.0625 28.9844 29.9922 29.2188 28.3906C29.2188 28.2344 29.2578 28.0781 29.2578 27.9219L26.0156 31.1641C25.5469 31.6328 24.6484 31.75 24.2188 31.0078C23.4766 29.7188 23.2812 27.5703 24.7656 25.5H22.5C21.8359 25.5 21.1328 24.9531 21.3281 24.1328C21.7578 22.4531 23.5547 20.5 26.875 20.5ZM31.1328 26.75H30.5859C30.5859 27.2578 30.5469 27.8828 30.4297 28.5859C30.2344 30.1094 29.8047 32.1406 28.9062 34.25H30.5859C31.4062 31.8281 31.4453 29.5625 31.2891 27.8438C31.25 27.4531 31.1719 27.1016 31.1328 26.75ZM31.25 35.5H26.25C24.1797 35.5 22.5 37.1797 22.5 39.25H35C35 37.1797 33.3203 35.5 31.25 35.5Z" fill="#727B9A"/>
</svg>
