<svg width="61" height="60" viewBox="0 0 61 60" fill="none" xmlns="http://www.w3.org/2000/svg">
<rect x="0.5" width="60" height="60" rx="30" fill="#F4F5F9"/>
<path d="M30.5 21.75H24.25C23.5469 21.75 23 22.3359 23 23V28H31.75V23C31.75 22.3359 31.1641 21.75 30.5 21.75ZM31.75 29.25H23V39.25H31.75V29.25ZM21.75 23C21.75 21.6328 22.8438 20.5 24.25 20.5H30.5C31.8672 20.5 33 21.6328 33 23V30.5H33.625C35.3438 30.5 36.75 31.9062 36.75 33.625V35.5C36.75 36.2031 37.2969 36.75 38 36.75C38.6641 36.75 39.25 36.2031 39.25 35.5V29.25C37.8438 29.25 36.75 28.1562 36.75 26.75V23.8203L35.6953 22.8438C35.4219 22.6094 35.4219 22.2188 35.6562 21.9844C35.8906 21.7109 36.2812 21.7109 36.5156 21.9453L39.6797 24.7969C40.1875 25.2656 40.5 25.9688 40.5 26.6719V35.5C40.5 36.9062 39.3672 38 38 38C36.5938 38 35.5 36.9062 35.5 35.5V33.625C35.5 32.6094 34.6406 31.75 33.625 31.75H33V39.25H33.625C33.9375 39.25 34.25 39.5625 34.25 39.875C34.25 40.2266 33.9375 40.5 33.625 40.5H33H31.75H23H21.75H21.125C20.7734 40.5 20.5 40.2266 20.5 39.875C20.5 39.5625 20.7734 39.25 21.125 39.25H21.75V23ZM39.25 28V26.6719C39.25 26.3203 39.0938 25.9688 38.8203 25.7344L38 24.9531V26.75C38 27.4531 38.5469 28 39.25 28Z" fill="#727B9A"/>
</svg>
