<svg width="61" height="60" viewBox="0 0 61 60" fill="none" xmlns="http://www.w3.org/2000/svg">
<rect x="0.5" width="60" height="60" rx="30" fill="#F4F5F9"/>
<path d="M26.2422 20.5H26.4766C26.5547 20.5 26.5938 20.5391 26.6328 20.5391C26.6719 20.5391 26.7109 20.5 26.75 20.5H34.25C34.25 20.5 34.2891 20.5391 34.3281 20.5391C34.3672 20.5391 34.4453 20.5 34.4844 20.5H34.7188C35.8125 20.5 36.8672 20.8906 37.6875 21.5938L40.7734 24.0938L42.4922 25.5L42.0625 25.9688L42.4922 25.5C43 25.9297 43.0781 26.7109 42.6484 27.2578L39.875 30.6172C39.4453 31.1641 38.6641 31.2422 38.1172 30.8125L36.75 29.6797V38.3125C36.75 39.5234 35.7344 40.5 34.5625 40.5H26.4375C25.2266 40.5 24.25 39.5234 24.25 38.3125V29.6797L22.8438 30.8125C22.2969 31.2422 21.5156 31.1641 21.0859 30.6562L18.3125 27.2578C17.8828 26.7109 17.9609 25.9297 18.4688 25.5L20.1875 24.0938L23.2734 21.5938C24.0938 20.8906 25.1484 20.5 26.2422 20.5ZM27.8438 21.75C28.2344 22.8438 29.25 23.625 30.5 23.625C31.7109 23.625 32.7656 22.8438 33.1172 21.75H27.8438ZM24.0547 22.5312L20.9688 25.0703L19.2891 26.4766L22.0625 29.8359L23.7422 28.4688L24.4453 27.8828C24.6406 27.7266 24.9141 27.6875 25.1094 27.8047C25.3438 27.8828 25.5 28.1172 25.5 28.3516V38.3125C25.5 38.8594 25.8906 39.25 26.4375 39.25H34.5625C35.0703 39.25 35.5 38.8594 35.5 38.3125V28.3516C35.5 28.1172 35.6172 27.8828 35.8516 27.8047C36.0469 27.6875 36.3203 27.7266 36.5156 27.8828L37.2188 28.4688L38.8984 29.8359L41.6719 26.4766L39.9922 25.0703L36.9062 22.5312C36.2812 22.0234 35.5 21.75 34.7188 21.75H34.4844C34.4844 21.7891 34.4844 21.7891 34.4453 21.7891C34.4453 21.7891 34.4062 21.8281 34.4062 21.8672C33.9375 23.625 32.375 24.875 30.5 24.875C28.5859 24.875 27.0234 23.625 26.5547 21.8672C26.5547 21.8281 26.5156 21.7891 26.5156 21.7891C26.4766 21.7891 26.4766 21.75 26.4766 21.75H26.2422C25.4609 21.75 24.6797 22.0234 24.0547 22.5312Z" fill="#727B9A"/>
</svg>
