<svg width="61" height="60" viewBox="0 0 61 60" fill="none" xmlns="http://www.w3.org/2000/svg">
<rect x="0.5" width="60" height="60" rx="30" fill="#F4F5F9"/>
<path d="M29.875 30.5C31.4375 30.5 32.8438 29.6797 33.625 28.3125C34.4453 26.9844 34.4453 25.3047 33.625 23.9375C32.8438 22.6094 31.4375 21.75 29.875 21.75C28.2734 21.75 26.8672 22.6094 26.0859 23.9375C25.2656 25.3047 25.2656 26.9844 26.0859 28.3125C26.8672 29.6797 28.2734 30.5 29.875 30.5ZM29.875 20.5C31.8672 20.5 33.7031 21.5938 34.7188 23.3125C35.7344 25.0703 35.7344 27.2188 34.7188 28.9375C33.7031 30.6953 31.8672 31.75 29.875 31.75C27.8438 31.75 26.0078 30.6953 24.9922 28.9375C23.9766 27.2188 23.9766 25.0703 24.9922 23.3125C26.0078 21.5938 27.8438 20.5 29.875 20.5ZM28.9375 24.875C28.9375 24.9141 28.8984 24.9141 28.9375 24.9922V25.0312C28.9375 25.0312 28.9375 25.0703 29.0938 25.1875C29.3281 25.3047 29.6406 25.3828 30.0312 25.5C30.4219 25.6172 30.8906 25.7344 31.2422 25.9688C31.6328 26.2031 32.0234 26.5938 32.0234 27.2188C32.0625 27.9219 31.6719 28.3906 31.2031 28.6641C30.9688 28.7812 30.7344 28.8594 30.4609 28.8984V29.3281C30.4609 29.6797 30.1875 29.9531 29.8359 29.9531C29.5234 29.9531 29.2109 29.6797 29.2109 29.3281V28.8984C28.8984 28.8203 28.5859 28.7031 28.3125 28.625C28.2344 28.5859 28.1562 28.5859 28.1172 28.5469C27.7656 28.4688 27.6094 28.1172 27.6875 27.7656C27.8047 27.4531 28.1562 27.2578 28.4688 27.375C28.5469 27.375 28.625 27.4141 28.7031 27.4531C29.1719 27.5703 29.4844 27.6875 29.875 27.6875C30.1484 27.7266 30.4219 27.6484 30.5781 27.5703C30.6953 27.5312 30.7344 27.4531 30.7344 27.4531C30.7734 27.4141 30.8125 27.3359 30.7734 27.2578C30.7734 27.2188 30.7734 27.1406 30.6172 27.0234C30.3828 26.9062 30.1094 26.8281 29.7188 26.7109H29.6406C29.2891 26.5938 28.8594 26.4766 28.5078 26.2812C28.1172 26.0859 27.7266 25.7344 27.6875 25.1094C27.6094 24.3672 28.0781 23.8984 28.5078 23.625C28.7422 23.5078 28.9766 23.4297 29.2109 23.3906V23C29.2109 22.6875 29.5234 22.375 29.8359 22.375C30.1875 22.375 30.4609 22.6875 30.4609 23V23.3906C30.7344 23.4297 30.9688 23.4688 31.1641 23.5469C31.5156 23.625 31.7109 23.9375 31.6328 24.2891C31.5547 24.6406 31.2031 24.8359 30.8906 24.7578C30.5 24.6406 30.1484 24.6016 29.8359 24.6016C29.6016 24.5625 29.3281 24.6406 29.0938 24.7578C29.0156 24.7969 28.9766 24.8359 28.9375 24.875ZM25.1484 32.9219C25.6562 32.5703 26.2422 32.375 26.8672 32.375H32.6875C33.8594 32.375 34.875 33.3906 34.875 34.5625C34.875 34.9141 34.7969 35.2266 34.6406 35.5H34.875L38.5469 33.3125C38.8984 33.1172 39.25 33 39.6406 33H39.6797C40.8125 33 41.75 33.9375 41.75 35.0703C41.75 35.7344 41.3984 36.3984 40.8125 36.7891L36.125 39.7969C35.4219 40.2656 34.6016 40.5 33.7422 40.5H19.875C19.5234 40.5 19.25 40.2266 19.25 39.875C19.25 39.5625 19.5234 39.25 19.875 39.25H33.7422C34.3672 39.25 34.9531 39.0938 35.4609 38.7812L40.1094 35.7344C40.3438 35.5781 40.4609 35.3438 40.4609 35.0703C40.4609 34.6406 40.1094 34.25 39.6797 34.25H39.6406C39.4844 34.25 39.3281 34.3281 39.2109 34.3672L35.3438 36.6719C35.2656 36.75 35.1484 36.75 35.0312 36.75H32.6875H31.75H29.25C28.8984 36.75 28.625 36.4766 28.625 36.125C28.625 35.8125 28.8984 35.5 29.25 35.5H31.75H32.6875C33.1953 35.5 33.625 35.1094 33.625 34.5625C33.625 34.0547 33.1953 33.625 32.6875 33.625H26.8672C26.4766 33.625 26.125 33.7422 25.8125 33.9766L22.6875 36.0469C22.6094 36.125 22.4922 36.125 22.375 36.125H19.875C19.5234 36.125 19.25 35.8516 19.25 35.5C19.25 35.1875 19.5234 34.875 19.875 34.875H22.1797L25.1484 32.9219Z" fill="#727B9A"/>
</svg>
