<svg width="20" height="22" viewBox="0 0 20 22" fill="none" xmlns="http://www.w3.org/2000/svg">
<path d="M1.25 4.625C1.25 4.3125 1.52344 4 1.875 4H18.125C18.4375 4 18.75 4.3125 18.75 4.625C18.75 4.97656 18.4375 5.25 18.125 5.25H1.875C1.52344 5.25 1.25 4.97656 1.25 4.625ZM1.25 10.875C1.25 10.5625 1.52344 10.25 1.875 10.25H18.125C18.4375 10.25 18.75 10.5625 18.75 10.875C18.75 11.2266 18.4375 11.5 18.125 11.5H1.875C1.52344 11.5 1.25 11.2266 1.25 10.875ZM18.75 17.125C18.75 17.4766 18.4375 17.75 18.125 17.75H1.875C1.52344 17.75 1.25 17.4766 1.25 17.125C1.25 16.8125 1.52344 16.5 1.875 16.5H18.125C18.4375 16.5 18.75 16.8125 18.75 17.125Z" fill="#727B9A"/>
</svg>
