<svg width="12" height="22" viewBox="0 0 12 22" fill="none" xmlns="http://www.w3.org/2000/svg">
<path d="M0.4375 3.09375C0.6875 2.96875 1 3 1.21875 3.1875L2.5 4.28125L3.75 3.1875C4.03125 2.96875 4.4375 2.96875 4.71875 3.1875L6 4.28125L7.25 3.1875C7.53125 2.96875 7.9375 2.96875 8.21875 3.1875L9.5 4.28125L10.75 3.1875C10.9688 3 11.2812 2.96875 11.5625 3.09375C11.8125 3.21875 12 3.46875 12 3.75V18.25C12 18.5625 11.8125 18.8125 11.5625 18.9375C11.2812 19.0625 10.9688 19.0312 10.75 18.8438L9.5 17.75L8.21875 18.8438C7.9375 19.0625 7.53125 19.0625 7.25 18.8438L6 17.75L4.71875 18.8438C4.4375 19.0625 4.03125 19.0625 3.75 18.8438L2.5 17.75L1.21875 18.8438C1 19.0312 0.6875 19.0625 0.4375 18.9375C0.15625 18.8125 0 18.5625 0 18.25V3.75C0 3.46875 0.15625 3.21875 0.4375 3.09375ZM3 7.5C2.71875 7.5 2.5 7.75 2.5 8C2.5 8.28125 2.71875 8.5 3 8.5H9C9.25 8.5 9.5 8.28125 9.5 8C9.5 7.75 9.25 7.5 9 7.5H3ZM2.5 14C2.5 14.2812 2.71875 14.5 3 14.5H9C9.25 14.5 9.5 14.2812 9.5 14C9.5 13.75 9.25 13.5 9 13.5H3C2.71875 13.5 2.5 13.75 2.5 14ZM3 10.5C2.71875 10.5 2.5 10.75 2.5 11C2.5 11.2812 2.71875 11.5 3 11.5H9C9.25 11.5 9.5 11.2812 9.5 11C9.5 10.75 9.25 10.5 9 10.5H3Z" fill="#0D43FF" fill-opacity="0.6"/>
</svg>
