<svg width="60" height="60" viewBox="0 0 60 60" fill="none" xmlns="http://www.w3.org/2000/svg">
<rect width="60" height="60" rx="30" fill="#F4F5F9"/>
<path d="M24.1797 23C23.3984 23 22.7344 23.4688 22.4219 24.2109L20.8984 28H26.25V27.375V23.625V23H24.1797ZM27.5 28H36.1719L32.7344 23.7031C32.3828 23.2734 31.8359 23 31.2891 23H27.5V23.625V27.375V28ZM37.7734 28.0391C40.3906 28.1953 42.5 30.3438 42.5 33V34.875C42.5 35.5781 41.9141 36.125 41.25 36.125H39.9219C39.6484 37.9219 38.0859 39.25 36.25 39.25C34.375 39.25 32.8125 37.9219 32.5391 36.125H27.4219C27.1484 37.9219 25.5859 39.25 23.75 39.25C21.875 39.25 20.3125 37.9219 20.0391 36.125H18.75C18.0469 36.125 17.5 35.5781 17.5 34.875V30.5C17.5 29.2891 18.3594 28.2734 19.5312 28.0391L21.2891 23.7422C21.7578 22.5312 22.8906 21.75 24.1797 21.75H31.2891C32.2266 21.75 33.125 22.1797 33.7109 22.9219L37.7734 28.0391ZM38.6719 36.125C38.7109 35.9297 38.75 35.7344 38.75 35.5C38.75 35.3047 38.7109 35.1094 38.6719 34.875C38.3594 33.8203 37.3828 33 36.25 33C35.0781 33 34.1016 33.8203 33.8281 34.875C33.75 35.1094 33.75 35.3047 33.75 35.5C33.75 35.7344 33.75 35.9297 33.8281 36.125C34.1016 37.2188 35.0781 38 36.25 38C37.3828 38 38.3594 37.2188 38.6719 36.125ZM32.5391 34.875C32.8125 33.1172 34.375 31.75 36.25 31.75C38.0859 31.75 39.6484 33.1172 39.9219 34.875H41.25V33C41.25 30.9297 39.5703 29.25 37.5 29.25H20C19.2969 29.25 18.75 29.8359 18.75 30.5V34.875H20.0391C20.3125 33.1172 21.875 31.75 23.75 31.75C25.5859 31.75 27.1484 33.1172 27.4219 34.875H32.5391ZM23.75 38C24.8828 38 25.8594 37.2188 26.1719 36.125C26.2109 35.9297 26.25 35.7344 26.25 35.5C26.25 35.3047 26.2109 35.1094 26.1719 34.875C25.8594 33.8203 24.8828 33 23.75 33C22.5781 33 21.6016 33.8203 21.3281 34.875C21.25 35.1094 21.25 35.3047 21.25 35.5C21.25 35.7344 21.25 35.9297 21.3281 36.125C21.6016 37.2188 22.5781 38 23.75 38Z" fill="#727B9A"/>
</svg>
