<svg width="60" height="60" viewBox="0 0 60 60" fill="none" xmlns="http://www.w3.org/2000/svg">
<rect width="60" height="60" rx="30" fill="#F4F5F9"/>
<path d="M25 36.75H21.25V38.625C21.25 38.9766 21.5234 39.25 21.875 39.25H24.375C24.6875 39.25 25 38.9766 25 38.625V36.75ZM24.375 40.5H21.875C20.8203 40.5 20 39.6797 20 38.625V36.75V36.125V35.5V25.5V24.875V24.25V22.375C20 21.3594 20.8203 20.5 21.875 20.5H24.375C24.8438 20.5 25.2734 20.6953 25.625 21.0078C25.9375 20.6953 26.3672 20.5 26.875 20.5H29.375C30.0391 20.5 30.5859 20.8516 30.9375 21.3984C31.0547 21.3203 31.1719 21.2812 31.3281 21.2422L33.6328 20.5781C34.6094 20.3047 35.625 20.8906 35.8594 21.9062L36.5625 24.6016L36.7188 25.2266L39.2188 34.8359L39.375 35.4219L39.9219 37.5312C40.1953 38.5078 39.6094 39.5625 38.6328 39.7969L36.3281 40.4609C35.3516 40.7344 34.375 40.1484 34.1016 39.1328L33.3984 36.4375L33.2422 35.8125L31.25 28.0781V35.5V36.125V36.75V38.625C31.25 39.6797 30.3906 40.5 29.375 40.5H26.875C26.3672 40.5 25.9375 40.3438 25.625 40.0312C25.2734 40.3438 24.8438 40.5 24.375 40.5ZM31.25 23.0391C31.25 23.0781 31.25 23.1562 31.25 23.1953L31.7969 25.2656L35.1953 24.3281L34.6484 22.2188C34.5703 21.8672 34.2578 21.7109 33.9844 21.7891L31.6406 22.4141C31.4453 22.4922 31.25 22.7266 31.25 23V23.0391ZM30 23.0391V22.375C30 22.0625 29.6875 21.75 29.375 21.75H26.875C26.5234 21.75 26.25 22.0625 26.25 22.375V24.25H30V23.0391ZM26.875 39.25H29.375C29.6875 39.25 30 38.9766 30 38.625V36.75H26.25V38.625C26.25 38.9766 26.5234 39.25 26.875 39.25ZM25 25.5H21.25V35.5H25V25.5ZM25 22.375C25 22.0625 24.6875 21.75 24.375 21.75H21.875C21.5234 21.75 21.25 22.0625 21.25 22.375V24.25H25V22.375ZM30 35.5V25.5H26.25V35.5H30ZM35.5078 25.5391L32.1094 26.4766L34.4531 35.5L37.8516 34.5625L35.5078 25.5391ZM38.1641 35.7734L34.7656 36.7109L35.3125 38.8203C35.3906 39.1719 35.7031 39.3281 35.9766 39.25L38.3203 38.5859C38.5938 38.5469 38.7891 38.1953 38.7109 37.8438L38.1641 35.7734Z" fill="#727B9A"/>
</svg>
