<svg width="60" height="60" viewBox="0 0 60 60" fill="none" xmlns="http://www.w3.org/2000/svg">
<rect width="60" height="60" rx="30" fill="#F4F5F9"/>
<path d="M18.5547 27.7266C18.2812 27.9609 17.8906 27.9609 17.6562 27.7266C17.4219 27.4531 17.4219 27.0625 17.6562 26.8281C20.8203 23.7031 25.1953 21.75 30 21.75C34.7656 21.75 39.1406 23.7031 42.3047 26.8281C42.5391 27.0625 42.5391 27.4531 42.3047 27.7266C42.0703 27.9609 41.6797 27.9609 41.4062 27.7266C38.4766 24.7969 34.4531 23 30 23C25.5078 23 21.4844 24.7969 18.5547 27.7266ZM30 29.25C27.2266 29.25 24.7266 30.3828 22.9297 32.1797C22.6953 32.4141 22.3047 32.4141 22.0312 32.1797C21.7969 31.9453 21.7969 31.5547 22.0312 31.3203C24.0625 29.2891 26.875 28.0391 30 28.0391C33.0859 28.0391 35.8984 29.2891 37.9297 31.3203C38.1641 31.5547 38.1641 31.9453 37.9297 32.1797C37.6953 32.4141 37.3047 32.4141 37.0312 32.1797C35.2344 30.3828 32.7344 29.25 30 29.25ZM30 35.5C29.2969 35.5 28.75 36.0859 28.75 36.75C28.75 37.4531 29.2969 38 30 38C30.6641 38 31.25 37.4531 31.25 36.75C31.25 36.0859 30.6641 35.5 30 35.5ZM30 39.25C29.1016 39.25 28.2812 38.7812 27.8125 38C27.3828 37.2578 27.3828 36.2812 27.8125 35.5C28.2812 34.7578 29.1016 34.25 30 34.25C30.8594 34.25 31.6797 34.7578 32.1484 35.5C32.5781 36.2812 32.5781 37.2578 32.1484 38C31.6797 38.7812 30.8594 39.25 30 39.25Z" fill="#727B9A"/>
</svg>
