<svg width="60" height="60" viewBox="0 0 60 60" fill="none" xmlns="http://www.w3.org/2000/svg">
<rect width="60" height="60" rx="30" fill="#F4F5F9"/>
<path d="M30 21.75H23.75C23.0469 21.75 22.5 22.3359 22.5 23V28H31.25V23C31.25 22.3359 30.6641 21.75 30 21.75ZM31.25 29.25H22.5V39.25H31.25V29.25ZM21.25 23C21.25 21.6328 22.3438 20.5 23.75 20.5H30C31.3672 20.5 32.5 21.6328 32.5 23V30.5H33.125C34.8438 30.5 36.25 31.9062 36.25 33.625V35.5C36.25 36.2031 36.7969 36.75 37.5 36.75C38.1641 36.75 38.75 36.2031 38.75 35.5V29.25C37.3438 29.25 36.25 28.1562 36.25 26.75V23.8203L35.1953 22.8438C34.9219 22.6094 34.9219 22.2188 35.1562 21.9844C35.3906 21.7109 35.7812 21.7109 36.0156 21.9453L39.1797 24.7969C39.6875 25.2656 40 25.9688 40 26.6719V35.5C40 36.9062 38.8672 38 37.5 38C36.0938 38 35 36.9062 35 35.5V33.625C35 32.6094 34.1406 31.75 33.125 31.75H32.5V39.25H33.125C33.4375 39.25 33.75 39.5625 33.75 39.875C33.75 40.2266 33.4375 40.5 33.125 40.5H32.5H31.25H22.5H21.25H20.625C20.2734 40.5 20 40.2266 20 39.875C20 39.5625 20.2734 39.25 20.625 39.25H21.25V23ZM38.75 28V26.6719C38.75 26.3203 38.5938 25.9688 38.3203 25.7344L37.5 24.9531V26.75C37.5 27.4531 38.0469 28 38.75 28Z" fill="#727B9A"/>
</svg>
