<svg width="60" height="60" viewBox="0 0 60 60" fill="none" xmlns="http://www.w3.org/2000/svg">
<rect width="60" height="60" rx="30" fill="#F4F5F9"/>
<path d="M30.3906 20.6562L41.0156 30.0312C41.2891 30.2656 41.2891 30.6562 41.0938 30.9297C40.8594 31.2031 40.4688 31.2031 40.1953 30.9688L38.75 29.6797V37.375C38.75 39.1328 37.3438 40.5 35.625 40.5H24.375C22.6172 40.5 21.25 39.1328 21.25 37.375V29.6797L19.7656 30.9688C19.5312 31.2031 19.1016 31.2031 18.9062 30.9297C18.6719 30.6562 18.6719 30.2656 18.9453 30.0312L29.5703 20.6562C29.8047 20.4609 30.1562 20.4609 30.3906 20.6562ZM22.5 37.375C22.5 38.4297 23.3203 39.25 24.375 39.25H26.875V33C26.875 32.3359 27.4219 31.75 28.125 31.75H31.875C32.5391 31.75 33.125 32.3359 33.125 33V39.25H35.625C36.6406 39.25 37.5 38.4297 37.5 37.375V28.5859L30 21.9844L22.5 28.5859V37.375ZM28.125 39.25H31.875V33H28.125V39.25Z" fill="#727B9A"/>
</svg>
