<svg width="60" height="60" viewBox="0 0 60 60" fill="none" xmlns="http://www.w3.org/2000/svg">
<rect width="60" height="60" rx="30" fill="#F4F5F9"/>
<path d="M26.25 23.625C26.25 23.7422 26.2891 23.8984 26.5625 24.1328C26.6016 24.1719 26.6797 24.25 26.7188 24.2891C26.1328 24.2891 25.5469 24.3672 25 24.4453V23.625C25 23.0391 25.3125 22.5703 25.7422 22.1797C26.1719 21.8281 26.7578 21.5156 27.4219 21.2812C28.75 20.8125 30.5469 20.5 32.5 20.5C34.4531 20.5 36.2109 20.8125 37.5391 21.2812C38.2031 21.5156 38.7891 21.8281 39.2188 22.1797C39.6484 22.5703 40 23.0391 40 23.625V27.6875V32.1406C40 32.7656 39.6484 33.2734 39.2188 33.625C38.8281 34.0156 38.2422 34.3281 37.5781 34.6016C37.1484 34.7578 36.7188 34.875 36.25 34.9922V33.7031C36.5625 33.625 36.8359 33.5078 37.1094 33.4297C37.6953 33.1953 38.125 32.9609 38.3984 32.7266C38.6719 32.4531 38.75 32.2969 38.75 32.1406V29.5625C38.3984 29.7969 38.0078 29.9922 37.5781 30.1484C37.1484 30.3047 36.7188 30.4219 36.25 30.5391V29.25C36.5625 29.1719 36.8359 29.0938 37.1094 28.9766C37.6953 28.7422 38.125 28.5078 38.3984 28.2734C38.6719 28.0391 38.75 27.8438 38.75 27.7266V25.4609C38.3984 25.6562 38.0078 25.8516 37.5781 26.0078C36.875 26.2422 36.0938 26.4375 35.2344 26.5547C35.1562 26.4766 35.0781 26.3984 35 26.3594C34.6094 26.0078 34.1406 25.6953 33.6719 25.4609C35.0391 25.3828 36.2109 25.1484 37.1484 24.7969C37.6953 24.6016 38.125 24.3672 38.3984 24.1328C38.6719 23.8984 38.75 23.7422 38.75 23.625C38.75 23.5469 38.6719 23.3516 38.3984 23.1172C38.125 22.9219 37.7344 22.6484 37.1484 22.4531C35.9766 22.0234 34.3359 21.75 32.5 21.75C30.625 21.75 28.9844 22.0234 27.8516 22.4531C27.2656 22.6875 26.8359 22.9219 26.5625 23.1562C26.2891 23.3906 26.2109 23.5469 26.2109 23.625H26.25ZM21.25 28.625C21.25 28.7422 21.2891 28.8984 21.5625 29.1328C21.8359 29.3672 22.2656 29.6016 22.8516 29.8359C23.9844 30.2266 25.625 30.5 27.5 30.5C29.3359 30.5 30.9766 30.2266 32.1484 29.8359C32.6953 29.6016 33.125 29.3672 33.3984 29.1328C33.6719 28.8984 33.75 28.7422 33.75 28.625C33.75 28.5469 33.6719 28.3906 33.3984 28.1562C33.125 27.9219 32.7344 27.6875 32.1484 27.4531C30.9766 27.0234 29.3359 26.75 27.5 26.75C25.625 26.75 23.9844 27.0234 22.8516 27.4531C22.2656 27.6875 21.8359 27.9219 21.5625 28.1562C21.2891 28.3906 21.2109 28.5469 21.2109 28.625H21.25ZM20 28.625C20 28.0391 20.3125 27.5703 20.7422 27.1797C21.1719 26.8281 21.7578 26.5156 22.4219 26.2812C23.75 25.8125 25.5469 25.5 27.5 25.5C29.4531 25.5 31.2109 25.8125 32.5391 26.2812C33.2031 26.5156 33.7891 26.8281 34.2188 27.1797C34.6484 27.5703 35 28.0391 35 28.625V32.6875V37.1406C35 37.7656 34.6484 38.2344 34.2188 38.625C33.8281 39.0156 33.2422 39.3281 32.5781 39.6016C31.25 40.1094 29.4531 40.3828 27.5 40.3828C25.5469 40.3828 23.7109 40.1094 22.3828 39.6016C21.7188 39.3281 21.1719 39.0156 20.7422 38.625C20.3125 38.2734 20 37.7656 20 37.1406V32.6875V28.625ZM33.75 30.4609C33.3984 30.6562 33.0078 30.8516 32.5391 31.0078C31.2109 31.4766 29.4531 31.75 27.5 31.75C25.5469 31.75 23.75 31.4766 22.4219 31.0078C21.9922 30.8516 21.5625 30.6562 21.25 30.4609V32.6875C21.25 32.8438 21.2891 33 21.5625 33.2734C21.8359 33.5078 22.2656 33.7422 22.8516 33.9766C23.9844 34.4062 25.625 34.6797 27.5 34.6797C29.3359 34.6797 30.9766 34.4062 32.1094 33.9766C32.6953 33.7422 33.125 33.5078 33.3984 33.2734C33.6719 33 33.75 32.8438 33.75 32.6875V30.4609ZM21.25 37.1406C21.25 37.2578 21.2891 37.4531 21.5625 37.7266C21.8359 37.9609 22.2656 38.1953 22.8516 38.4297C23.9844 38.8594 25.625 39.1328 27.5 39.1328C29.3359 39.1328 30.9766 38.8594 32.1094 38.4297C32.6953 38.1953 33.125 37.9609 33.3984 37.7266C33.6719 37.4531 33.75 37.2969 33.75 37.1406V34.5625C33.3984 34.7969 33.0078 34.9922 32.5781 35.1484C31.25 35.6562 29.4531 35.9297 27.5 35.9297C25.5469 35.9297 23.7109 35.6562 22.3828 35.1484C21.9531 34.9922 21.5625 34.7969 21.25 34.5625V37.1406Z" fill="#727B9A"/>
</svg>
