<svg width="60" height="60" viewBox="0 0 60 60" fill="none" xmlns="http://www.w3.org/2000/svg">
<rect width="60" height="60" rx="30" fill="#F4F5F9"/>
<path d="M30.2734 20.6172L39.375 25.7344C39.7656 25.9688 40 26.3594 40 26.7891C40 27.4531 39.4531 28 38.75 28H21.2109C20.5469 28 20 27.4531 20 26.7891C20 26.3594 20.2344 25.9688 20.5859 25.7344L29.6875 20.6172C29.8828 20.5 30.1172 20.5 30.2734 20.6172ZM30 21.8672L21.3281 26.75H38.6328L30 21.8672ZM22.5 34.25V29.25H23.75V34.25H26.875V29.25H28.125V34.25H31.875V29.25H33.125V34.25H36.25V29.25H37.5V34.25C37.8125 34.25 38.125 34.5625 38.125 34.875C38.125 35.2266 37.8125 35.5 37.5 35.5H22.5C22.1484 35.5 21.875 35.2266 21.875 34.875C21.875 34.5625 22.1484 34.25 22.5 34.25ZM20.9375 37.375C20.9375 37.0625 21.2109 36.75 21.5625 36.75H38.4375C38.75 36.75 39.0625 37.0625 39.0625 37.375C39.0625 37.7266 38.75 38 38.4375 38H21.5625C21.2109 38 20.9375 37.7266 20.9375 37.375ZM20 39.875C20 39.5625 20.2734 39.25 20.625 39.25H39.375C39.6875 39.25 40 39.5625 40 39.875C40 40.2266 39.6875 40.5 39.375 40.5H20.625C20.2734 40.5 20 40.2266 20 39.875Z" fill="#727B9A"/>
</svg>
