<svg width="60" height="60" viewBox="0 0 60 60" fill="none" xmlns="http://www.w3.org/2000/svg">
<rect width="60" height="60" rx="30" fill="#F4F5F9"/>
<path d="M25.625 23H24.375C24.0234 23 23.75 23.3125 23.75 23.625V26.125V34.875V37.375C23.75 37.7266 24.0234 38 24.375 38H25.625C25.9375 38 26.25 37.7266 26.25 37.375V30.5V23.625C26.25 23.3125 25.9375 23 25.625 23ZM22.5 36.6719C22.3047 36.7109 22.0703 36.75 21.875 36.75H20.625C19.5703 36.75 18.75 35.9297 18.75 34.875V31.125H18.125C17.7734 31.125 17.5 30.8516 17.5 30.5C17.5 30.1875 17.7734 29.875 18.125 29.875H18.75V26.125C18.75 25.1094 19.5703 24.25 20.625 24.25H21.875C22.0703 24.25 22.3047 24.2891 22.5 24.3672V23.625C22.5 22.6094 23.3203 21.75 24.375 21.75H25.625C26.6406 21.75 27.5 22.6094 27.5 23.625V29.875H32.5V23.625C32.5 22.6094 33.3203 21.75 34.375 21.75H35.625C36.6406 21.75 37.5 22.6094 37.5 23.625V24.3672C37.6953 24.2891 37.8906 24.25 38.125 24.25H39.375C40.3906 24.25 41.25 25.1094 41.25 26.125V29.875H41.875C42.1875 29.875 42.5 30.1875 42.5 30.5C42.5 30.8516 42.1875 31.125 41.875 31.125H41.25V34.875C41.25 35.9297 40.3906 36.75 39.375 36.75H38.125C37.8906 36.75 37.6953 36.75 37.5 36.6719V37.375C37.5 38.4297 36.6406 39.25 35.625 39.25H34.375C33.3203 39.25 32.5 38.4297 32.5 37.375V31.125H27.5V37.375C27.5 38.4297 26.6406 39.25 25.625 39.25H24.375C23.3203 39.25 22.5 38.4297 22.5 37.375V36.6719ZM37.5 26.125V34.875C37.5 35.2266 37.7734 35.5 38.125 35.5H39.375C39.6875 35.5 40 35.2266 40 34.875V30.5V26.125C40 25.8125 39.6875 25.5 39.375 25.5H38.125C37.7734 25.5 37.5 25.8125 37.5 26.125ZM36.25 34.875V26.125V23.625C36.25 23.3125 35.9375 23 35.625 23H34.375C34.0234 23 33.75 23.3125 33.75 23.625V30.5V37.375C33.75 37.7266 34.0234 38 34.375 38H35.625C35.9375 38 36.25 37.7266 36.25 37.375V34.875ZM22.5 26.125C22.5 25.8125 22.1875 25.5 21.875 25.5H20.625C20.2734 25.5 20 25.8125 20 26.125V30.5V34.875C20 35.2266 20.2734 35.5 20.625 35.5H21.875C22.1875 35.5 22.5 35.2266 22.5 34.875V26.125Z" fill="#727B9A"/>
</svg>
